{
	"asset":{
		"generator":"Khronos glTF Blender I/O v4.2.60",
		"version":"2.0"
	},
	"extensionsUsed":[
		"KHR_materials_specular"
	],
	"scene":0,
	"scenes":[
		{
			"name":"Scene",
			"nodes":[
				0
			]
		}
	],
	"nodes":[
		{
			"mesh":0,
			"name":"3DModel",
			"rotation":[
				0.7071068286895752,
				0,
				0,
				0.7071068286895752
			]
		}
	],
	"materials":[
		{
			"doubleSided":true,
			"extensions":{
				"KHR_materials_specular":{
					"specularFactor":0
				}
			},
			"name":"3DModel",
			"pbrMetallicRoughness":{
				"baseColorTexture":{
					"index":0
				},
				"metallicFactor":0
			}
		}
	],
	"meshes":[
		{
			"name":"3DModel",
			"primitives":[
				{
					"attributes":{
						"POSITION":0,
						"NORMAL":1,
						"TEXCOORD_0":2
					},
					"indices":3,
					"material":0
				}
			]
		}
	],
	"textures":[
		{
			"sampler":0,
			"source":0
		}
	],
	"images":[
		{
			"mimeType":"image/jpeg",
			"name":"3DModel",
			"uri":"3DModel.jpg"
		}
	],
	"accessors":[
		{
			"bufferView":0,
			"componentType":5126,
			"count":18142,
			"max":[
				1.332970380783081,
				2.6061620712280273,
				0.9927516579627991
			],
			"min":[
				-2.0565199851989746,
				-2.369507074356079,
				-2.9411349296569824
			],
			"type":"VEC3"
		},
		{
			"bufferView":1,
			"componentType":5126,
			"count":18142,
			"type":"VEC3"
		},
		{
			"bufferView":2,
			"componentType":5126,
			"count":18142,
			"type":"VEC2"
		},
		{
			"bufferView":3,
			"componentType":5123,
			"count":19809,
			"type":"SCALAR"
		}
	],
	"bufferViews":[
		{
			"buffer":0,
			"byteLength":217704,
			"byteOffset":0,
			"target":34962
		},
		{
			"buffer":0,
			"byteLength":217704,
			"byteOffset":217704,
			"target":34962
		},
		{
			"buffer":0,
			"byteLength":145136,
			"byteOffset":435408,
			"target":34962
		},
		{
			"buffer":0,
			"byteLength":39618,
			"byteOffset":580544,
			"target":34963
		}
	],
	"samplers":[
		{
			"magFilter":9729,
			"minFilter":9987
		}
	],
	"buffers":[
		{
			"byteLength":620164,
			"uri":"3DModel.bin"
		}
	]
}
