<?xml version="1.0" encoding="UTF-8" standalone="no"?>
<svg
   version="1.1"
   id="Layer_1"
   x="0px"
   y="0px"
   viewBox="0 0 256 256"
   xml:space="preserve"
   xmlns="http://www.w3.org/2000/svg"
   xmlns:svg="http://www.w3.org/2000/svg">
<path
   id="path1"
   style="display:inline;fill:#ffffff"
   d="M 128 0 C 57.300213 0 0 57.300213 0 128 C 0 198.69979 57.300213 256 128 256 C 198.69979 256 256 198.69979 256 128 C 256 57.300213 198.69979 0 128 0 z M 78.599609 46.699219 C 84.199604 46.699219 88.699219 51.300787 88.699219 56.800781 C 88.699219 62.300776 84.199604 66.900391 78.599609 66.900391 C 72.999615 66.900391 68.5 62.300776 68.5 56.800781 C 68.5 51.200787 72.999615 46.699219 78.599609 46.699219 z M 70.900391 79.099609 L 86.300781 79.099609 L 86.300781 127.5 L 86.300781 186.19922 L 70.900391 186.19922 L 70.900391 79.099609 z M 108.90039 79.099609 L 150.5 79.099609 C 190.09988 79.099609 207.5 107.39928 207.5 132.69922 C 207.5 160.19913 185.9991 186.30078 150.69922 186.30078 L 108.90039 186.30078 L 108.90039 79.099609 z M 124.30078 93 L 124.30078 172.40039 L 148.80078 172.40039 C 183.70069 172.40039 191.69922 145.89919 191.69922 132.69922 C 191.69922 111.19928 177.99991 93 148 93 L 124.30078 93 z " />
</svg>
