<?xml version="1.0" encoding="UTF-8" standalone="no"?>
<svg
   xmlns:dc="http://purl.org/dc/elements/1.1/"
   xmlns:cc="http://creativecommons.org/ns#"
   xmlns:rdf="http://www.w3.org/1999/02/22-rdf-syntax-ns#"
   xmlns:svg="http://www.w3.org/2000/svg"
   xmlns="http://www.w3.org/2000/svg"
   xmlns:sodipodi="http://sodipodi.sourceforge.net/DTD/sodipodi-0.dtd"
   xmlns:inkscape="http://www.inkscape.org/namespaces/inkscape"
   version="1.0"
   width="970px"
   height="829px"
   viewBox="0 0 970 829"
   preserveAspectRatio="xMidYMid meet"
   id="svg2690"
   sodipodi:docname="Background.svg"
   inkscape:version="1.0.2 (e86c8708, 2021-01-15)">
  <metadata
     id="metadata2696">
    <rdf:RDF>
      <cc:Work
         rdf:about="">
        <dc:format>image/svg+xml</dc:format>
        <dc:type
           rdf:resource="http://purl.org/dc/dcmitype/StillImage" />
        <dc:title />
      </cc:Work>
    </rdf:RDF>
  </metadata>
  <defs
     id="defs2694" />
  <sodipodi:namedview
     pagecolor="#ffffff"
     bordercolor="#666666"
     borderopacity="1"
     objecttolerance="10"
     gridtolerance="10"
     guidetolerance="10"
     inkscape:pageopacity="0"
     inkscape:pageshadow="2"
     inkscape:window-width="1920"
     inkscape:window-height="999"
     id="namedview2692"
     showgrid="false"
     inkscape:zoom="3.0208948"
     inkscape:cx="957.66693"
     inkscape:cy="708.41021"
     inkscape:window-x="0"
     inkscape:window-y="23"
     inkscape:window-maximized="0"
     inkscape:current-layer="svg2690"
     inkscape:document-rotation="0" />
  <g
     fill="#24150e"
     id="g2560">
    <path
       d="M289.3 684.2 c-2.8 -0.4 -6.6 -1.7 -8.6 -2.7 -2.9 -1.6 -7 -1.9 -21.9 -2 -10.1 0 -22.5 -0.6 -27.8 -1.1 -9.4 -1.1 -50.4 -2.5 -65.6 -2.1 -4.3 0.1 -9.4 0.7 -11.4 1.3 -2.7 1 -5.7 1 -12.3 -0.1 -6.6 -1 -13.2 -1 -27.2 -0.2 -10.2 0.7 -19.6 1.2 -21 1.2 -3.7 0 -9.3 -11.7 -10.5 -21.9 -2.1 -16.9 -2.5 -23.7 -1.1 -26.1 0.7 -1.2 1.7 -6.7 2.2 -12.2 1.5 -13 2.9 -17 6.6 -17.8 1.7 -0.3 3.6 -0.8 4.3 -1 0.7 -0.2 1.6 -3 1.8 -6.2 0.4 -3.9 1.7 -7.3 3.9 -10.4 l3.3 -4.7 20.7 0.1 c15 0.1 22.5 0.7 27.7 2 3.9 1 8.9 1.8 11 1.8 2.1 0 5.7 0.8 8.1 1.8 3 1.2 6.1 1.6 11.4 1 7.8 -0.7 21 2.2 24.7 5.6 2.5 2.2 12.1 2.4 13 0 1 -2.6 8.3 -4.3 15.7 -3.5 24.4 2.6 31.4 3 51 2.9 25.5 0 23.3 -1.1 24.2 12.9 0.2 4.9 1 10.4 1.7 12.1 0.7 1.8 1.3 13.9 1.5 29.2 0.1 23.4 -0.1 26.4 -1.9 29 -1.1 1.6 -2 4.1 -2 5.6 0 6.1 -6.4 7.6 -21.3 5.5z"
       id="path2548" />
    <path
       d="M568 672.7 c-2.5 -0.4 -6.4 -0.9 -8.7 -0.9 -2.4 -0.1 -5.6 -0.8 -7.4 -1.7 l-3 -1.7 -0.3 -31.6 c-0.1 -26.9 0.1 -32 1.6 -34.2 1.9 -2.9 6.2 -3.5 12.4 -1.7 2.6 0.8 5.6 0.4 11.2 -1.2 9.3 -2.6 19.7 -2.1 26 1.2 4.6 2.5 8.7 3.4 18.7 4.3 3.7 0.2 7.2 0.9 7.7 1.5 3.1 3.1 5.3 41.4 2.6 47.2 -0.8 1.6 -4.9 6.3 -9.4 10.4 -7.3 6.7 -8.6 7.6 -14.6 8.5 -7.7 1.3 -30.4 1.2 -36.8 -0.1z"
       id="path2550" />
    <path
       d="M919.8 637.1 c-2.6 -0.4 -5.4 -1.5 -6.1 -2.1 -0.8 -0.8 -4.7 -1.3 -9.4 -1.3 -10.4 0 -11.9 -1.2 -11.6 -10 0.1 -3.5 -0.4 -10.3 -1.2 -15.3 -1.7 -10.2 -2.1 -39 -0.8 -50 0.8 -6.4 1.3 -7.6 3.7 -8.7 3.3 -1.5 66.5 -1.7 70.4 -0.1 4.5 1.7 5.2 7.2 5 44.6 0 19.2 -0.4 36.2 -0.9 38 l-0.8 3.1 -17.4 1.3 c-19.6 1.5 -24.2 1.5 -31.1 0.4z"
       id="path2552" />
    <path
       d="M614.5 543.2 c-4.7 -2.6 -5.7 -2.8 -15.1 -2 -5.5 0.3 -15.3 0.7 -21.6 0.7 -15.5 0.1 -15.9 -0.3 -15.8 -14.1 0 -13.5 2.7 -52.3 3.8 -54.7 1.2 -3 3.8 -3.4 22.2 -3 9.4 0.1 20.6 -0.1 25 -0.6 l8.1 -1 3.1 3.8 c7.2 8.3 8.1 8.9 12.7 8.9 5.3 0 5.3 0.1 6.3 12.9 1.9 25.7 1.9 28.6 0.1 34 -1 2.9 -2.4 7.4 -2.9 10 -1.5 6.1 -5.3 8.2 -14.2 8.2 -4.8 -0.1 -7.8 -0.9 -11.6 -2.9z"
       id="path2554" />
    <path
       d="M480 466.5 c-2.4 -2.4 -2.5 -3.1 -1.8 -12.2 1.3 -17.4 2.1 -45.2 1.9 -60.2 l-0.3 -14.7 5.8 -5.7 c9.6 -9.4 11 -9.9 35.4 -10.9 15.6 -0.6 22.7 -0.4 26.2 0.6 2.8 0.8 7.8 1.3 11.3 1.2 3.5 -0.1 8.1 0.4 10.1 1.3 l3.8 1.6 0.3 -22.5 c0.3 -18.3 0.8 -23.8 2.5 -28.7 l2.1 -6.2 7.6 -0.8 c4.1 -0.4 17.9 -0.4 30.6 -0.1 27.7 0.7 31.8 1.7 33 8 1.7 10.2 -0.3 46.3 -2.7 47.1 -0.6 0.2 -1.1 1.6 -1.1 2.9 0 2.4 -0.8 2.7 -7.5 3.7 -7.8 1.2 -47.1 0.2 -55.7 -1.5 l-4.3 -0.8 1.8 3.4 c2.7 5.4 3.4 16.6 1.7 33.5 -0.8 8.5 -1.2 21.3 -1.1 28.3 l0.3 12.7 -5.2 4.7 c-2.8 2.6 -6.8 6.3 -9.1 8.1 -2.1 1.9 -4.3 3.6 -4.6 3.9 -0.3 0.3 -6.5 0.9 -13.7 1.3 -7.2 0.3 -18.4 1.2 -24.9 1.9 -6.5 0.7 -18.2 1.6 -25.9 1.9 -13.7 0.8 -14.2 0.7 -16.7 -1.8z"
       id="path2556" />
    <path
       d="M480.3 194.2 c-0.8 -0.4 -2.2 -4.1 -3.4 -8.2 -1.7 -6.6 -1.7 -9.5 -0.4 -32.4 0.8 -13.9 1.9 -26.6 2.6 -28.3 1.5 -3.8 8 -5.4 23 -5.4 9 0 11.8 0.4 15.9 2.5 4 2 7.5 2.7 15.8 2.9 15.1 0.6 14.5 -0.7 14.6 28.7 l0 23.5 -3 3.1 c-2.7 2.8 -3.7 3.1 -10.9 3.1 -5.8 0 -9.8 0.8 -14.7 2.8 -3.7 1.6 -8 2.8 -9.5 2.8 -1.6 0 -5.5 1.2 -8.7 2.8 -6.2 2.8 -18.1 3.9 -21.2 1.9z"
       id="path2558" />
  </g>
  <g
     fill="#701611"
     id="g2578">
    <path
       d="m 644.7,805.3 c 0.2,-0.7 2,-3 4,-5.2 3,-3.4 4.1,-3.8 9.1,-3.8 4.8,0 6.2,0.6 9.8,3.8 3,2.8 4.4,5.2 4.9,8.5 0.4,2.6 1.5,4.9 2.2,5.3 1.6,0.6 11.3,-2.6 13.2,-4.4 0.7,-0.4 3.1,-0.9 5.6,-0.9 2.6,-0.1 5.8,-0.8 7.4,-1.7 1.6,-0.9 4,-1.7 5.6,-1.7 1.6,0 3.8,-0.8 4.9,-1.7 1.2,-0.9 4,-1.7 6.4,-1.7 4,0 4,0 4.8,-5.6 l 0.8,-5.6 h 4.7 c 3.9,0 5.5,0.7 8.9,3.9 l 4,4 2.2,-3.1 c 1.2,-1.7 2.8,-6.2 3.5,-9.9 2.5,-12.9 1.9,-11.9 7.2,-11.6 4,0.3 4.8,0.8 5.3,3.1 1.1,5.4 3.3,7.4 7.5,7 4.7,-0.6 8.2,2.2 8.2,6.6 0,1.8 0.9,4.9 1.9,7.2 1.5,3 2.6,3.9 4.8,3.9 1.8,0 3.9,1.1 5.4,2.8 1.3,1.6 3.7,2.8 5.2,2.8 1.5,0 2.9,0.8 3.4,1.7 0.9,2.5 3.7,2 9.2,-1.3 4.8,-3.1 4.8,-3.3 4.9,-9.5 0,-6.7 0.7,-7.8 9.3,-16.7 4.5,-4.7 4.6,-5.2 4.1,-21 -0.1,-5.4 0.3,-10.7 1.1,-12.7 1.2,-2.8 1.1,-3.6 -0.4,-5.4 -2,-2.1 -2.5,-10.8 -0.7,-11.9 0.7,-0.3 1.1,-1.7 1.1,-2.9 0,-1.6 0.8,-2.1 2.9,-2.1 1.7,0 6.2,-0.6 10.1,-1.3 5.7,-1 8.1,-1 11.7,0.2 3.5,1.1 4.8,1.2 5.8,0.2 0.8,-0.8 4,-1.3 7.4,-1.3 3.5,0 6.6,-0.7 7.4,-1.5 2.1,-2 3.4,-8.3 1.9,-9.2 -0.7,-0.3 -1.2,-2.7 -1.2,-5.3 0,-3.6 -0.8,-5.3 -3.9,-8.4 -3.6,-3.6 -4.3,-3.9 -8.7,-3.1 -9.6,1.6 -25.2,1.9 -27.7,0.6 -1.3,-0.7 -3.1,-2.9 -3.9,-4.8 -0.8,-2 -3.5,-5.5 -5.8,-7.7 l -4.3,-4 -11.2,-0.2 c -6.2,0 -14.2,0.2 -17.9,0.6 -6.3,0.7 -7,0.6 -9.4,-2.1 -1.6,-1.6 -3.5,-2.9 -4.3,-2.9 -0.9,0 -2.7,-0.6 -4,-1.3 -1.3,-0.8 -6.7,-1.5 -12,-1.5 -10.4,-0.1 -16.9,-2 -19.7,-5.9 -1.2,-1.8 -2.2,-2.2 -3.6,-1.5 -1,0.4 -5.6,1.3 -10.1,1.7 -8,0.8 -8.3,0.7 -10.5,-2.1 l -2.4,-2.9 -17.5,0.7 c -21.4,0.9 -23.2,0.2 -22.9,-7.3 0.7,-12.6 0.7,-21.3 -0.1,-28.6 -1.5,-14.1 -0.2,-12.9 -13.3,-12.9 -8.3,0 -12.1,-0.4 -13.9,-1.7 -1.8,-1.3 -3,-1.3 -5.8,-0.4 -4.5,1.6 -5.5,5.5 -3.1,12.2 1.5,4.1 1.7,8.1 1.1,21.3 -0.7,16.5 -1.9,21.2 -5.7,21.3 -0.9,0 -3,1.6 -4.7,3.4 -3,3.3 -3.5,3.4 -12.8,3.4 -7.5,0 -9.6,-0.3 -9.6,-1.6 0,-0.9 1.3,-1.9 3,-2.4 3.6,-0.9 18.3,-14.2 20.2,-18.4 0.8,-1.6 1.3,-6.7 1.3,-11.3 0,-9.4 -2.5,-27.7 -3.9,-29.2 -0.6,-0.6 -4,-1.2 -7.7,-1.5 -9.8,-0.9 -14.1,-1.8 -18.5,-4 -6.6,-3.5 -10.9,-3.7 -20.5,-1 -7.7,2 -9.9,2.2 -14.7,1.1 -5.2,-1.1 -5.9,-1 -7.6,1.1 -1.8,2 -1.9,4.9 -1.6,31 l 0.3,28.8 4.1,1.7 c 2.2,0.9 4,2.4 4,3.3 0,1.2 -2.7,1.3 -15.9,0.6 -20.1,-1.1 -44.1,-0.7 -48.8,1 -2.7,0.9 -5.8,0.8 -12.9,-0.3 -11.1,-1.8 -15.6,-1.7 -22,0.8 -4.1,1.6 -6.3,1.7 -14.9,0.6 -8.4,-1 -10.8,-1 -14.8,0.4 -5.8,2.1 -38.1,2.8 -40,0.9 -0.8,-0.8 -1.3,-11.1 -1.7,-28.8 -0.4,-25.9 -1.8,-40.3 -4,-42.7 -0.6,-0.7 -1,-2.8 -1,-4.8 0,-3.1 0.7,-4 4.3,-5.8 2.2,-1.2 5.8,-3.9 8,-6.2 l 3.9,-4 -0.2,-14.2 c -0.2,-28.3 -1.1,-43.1 -2.9,-45.8 -1.2,-1.9 -3.8,-3 -10.4,-4.4 -4.8,-1 -10.3,-2.4 -12.2,-3 -1.9,-0.6 -8,-0.7 -13.5,-0.3 -9.3,0.7 -10.4,0.6 -16.1,-2.2 -5.4,-2.7 -7.8,-3.1 -19.1,-3.5 -21.4,-0.7 -31.7,-1.8 -35.5,-3.7 -3,-1.6 -4.3,-1.6 -7.4,-0.4 -2.9,1 -8.3,1.1 -23.7,0.1 l -19.8,-1.2 -4.6,3.1 c -7.8,5.5 -8.1,6.4 -7,23.2 0.6,8.2 1,21 1,28.5 0,9.4 0.4,14.1 1.5,15 0.7,0.8 1.3,2 1.3,2.8 0,0.8 1.6,1.7 3.5,2.1 1.9,0.4 5.2,1.7 7.1,2.8 2.1,1.3 7,2.5 12.4,2.9 4.9,0.4 10,1.2 11.1,1.9 1.2,0.6 10.7,1.2 21.1,1.5 10.3,0.1 19.3,0.6 20,1 0.6,0.3 1.1,2.6 1.1,4.8 -0.1,3.5 -0.3,3.8 -1.5,2.5 -1.1,-1.5 -5,-1.8 -23.2,-1.9 -27.4,-0.2 -39.8,-1 -45.1,-2.7 -5.4,-1.7 -11.7,-0.4 -14.6,2.9 -2.2,2.6 -2.9,2.7 -10.3,2.1 -4.4,-0.4 -8.7,-1.5 -9.8,-2.4 -1,-0.8 -5.2,-2.5 -9.1,-3.6 -5.8,-1.7 -8.5,-1.9 -13,-1.1 -4.7,0.9 -6.8,0.7 -12.1,-1.2 -3.6,-1.2 -8.2,-2.2 -10.1,-2.2 -2,0 -6.7,-0.8 -10.5,-1.8 -3.7,-0.9 -10.7,-1.7 -15.5,-1.6 -9.9,0.2 -18.4,0.1 -23.1,-0.3 -4.7,-0.3 -9.8,6.8 -10.5,14.9 -0.2,3.1 -1.1,5.9 -1.8,6.2 -0.7,0.2 -2.6,0.7 -4.3,1 -3.7,0.8 -5.2,4.8 -6.5,17.7 -0.7,5.3 -1.7,11 -2.4,12.4 -0.9,2.1 -0.9,4.7 0,10 0.7,4 1.2,9 1.2,11.1 0,2.1 1.8,7.6 3.9,12.1 l 3.9,8.2 4.8,-0.6 c 11.1,-1.6 39.7,-2 44.9,-0.9 4,1 5.9,0.9 7.8,-0.1 1.8,-0.9 8.2,-1.2 22.1,-0.9 18.8,0.3 23.3,0.3 41.2,0.1 4.5,0 9.5,0.4 11.2,1.1 1.8,0.7 14.2,1.5 28.8,1.7 22.4,0.4 26.1,0.8 29.8,2.7 2.4,1.1 4.5,1.8 4.9,1.5 1.3,-1.3 2,3.1 0.7,4.7 -0.9,1 -1.2,5.7 -1.2,13.6 0.1,12.6 -1.1,20.1 -3.7,21 -1.3,0.6 -3.3,10.1 -2.8,14 0.7,5.4 0,25 -0.9,28.3 -3,11 -5.6,13.3 -12.7,11.9 -2.8,-0.6 -3.4,-0.2 -3.4,1.6 0,1.9 -0.8,2.2 -5.6,2.2 -4.4,0 -5.6,-0.4 -5.6,-1.8 0,-0.9 -1.3,-3.5 -2.9,-5.6 -2.1,-2.7 -3.8,-3.8 -6.1,-3.8 -4.7,0 -6.7,-2.7 -6.7,-8.9 0,-2.9 -0.8,-7 -1.7,-8.9 -1,-1.8 -2,-6.7 -2.5,-10.8 -0.3,-4.1 -1.2,-7.8 -1.9,-8.2 -0.7,-0.4 -4.3,-1.1 -8,-1.6 -3.7,-0.4 -6.8,-1.3 -7.1,-2 -0.2,-0.7 -0.9,-1.2 -1.5,-1.2 -0.6,0 0.6,2.5 2.4,5.5 2.7,4.3 3.4,6.7 3.4,11.6 0,3.5 0.8,8.2 1.8,10.4 2.2,5.4 1.6,12.9 -1.8,23.5 -2.7,8.2 -3,12.6 -1.7,23.3 0.6,4.5 0.4,6.4 -0.4,6.4 -0.7,0 -2.9,1.6 -4.8,3.5 l -3.6,3.4 -19.7,-0.4 c -12.3,-0.3 -20.7,-1 -22.7,-1.9 -2.6,-1.2 -3.7,-1.1 -7.8,1 -2.8,1.2 -6.8,2.4 -9.1,2.4 -2.2,0 -4.4,0.6 -4.7,1.1 -1.2,2 -7.6,1.2 -10.2,-1.1 -1.5,-1.5 -5.2,-2.8 -9.8,-3.6 -6.4,-1 -7.8,-1 -10.3,0.7 -2.4,1.6 -4.5,1.7 -13.6,1.1 -13,-0.9 -13.9,-1.9 -13.7,-12.8 0.1,-4 -0.2,-9 -0.7,-11 l -0.9,-3.8 -2.6,2.5 c -1.5,1.3 -3.6,4.9 -4.6,8 l -2,5.4 H 70 c -7.7,0 -9.8,-0.3 -12.4,-2.5 -4.4,-3.4 -4.8,-4.1 -4.8,-9 0,-2.8 0.6,-4.5 1.8,-4.9 2.6,-1 6.1,-9.9 6.1,-15.6 v -4.9 h 4.9 c 2.9,0 5.4,0.7 6.3,1.7 0.8,0.9 2.2,1.7 3.3,1.7 1,0 2.5,1 3.3,2.2 0.8,1.2 2.2,2.2 3.3,2.2 1,0 2.8,0.8 3.9,1.9 1.9,1.7 2,1.5 2.2,-6.5 0.2,-9.1 0.2,-11.1 -0.7,-23.4 -0.3,-4.6 -0.7,-10.5 -0.7,-13 v -4.7 l -7,-0.7 c -20.2,-2.1 -21.1,-2.1 -23.1,-0.3 -2.5,2.1 -18.6,3.8 -19.7,2 -0.4,-0.7 -2.6,-1.2 -4.7,-1.2 -2.5,0 -5.3,-1 -7.5,-2.7 -2.1,-1.7 -5.9,-3 -9.2,-3.5 -5.4,-0.8 -5.7,-0.6 -8.2,2.7 -1.3,1.9 -3.5,3.5 -4.7,3.5 -2.2,0 -2.2,-1 -2.2,-62.1 0,-40.3 0.4,-62.5 1.1,-62.9 0.7,-0.3 1.1,-2.5 1.1,-4.7 0,-2.1 0.8,-8.6 1.8,-14.4 1.3,-8.1 1.5,-11 0.4,-12.9 C 2.5,564.2 0.7,514 2.5,507.9 l 1.3,-5 7.4,0.7 c 4,0.3 10.7,0.9 14.7,1.1 12.6,0.9 25.2,2.4 26.4,3 0.7,0.4 12.1,1.1 25.7,1.6 24.4,0.7 29.8,1.5 29.8,4.1 0.1,2.8 4.3,-8 5.6,-14.1 1.8,-9 -0.2,-44.7 -2.9,-50.5 -1.1,-2.2 -2.6,-3.9 -3.4,-3.6 -0.8,0.3 -3.4,0.9 -5.7,1.3 -2.4,0.4 -4.7,1.1 -5.4,1.6 -2.8,1.9 -12.6,3.7 -21,3.6 -12.2,0 -41.8,-2.9 -54.2,-5.4 -3.3,-0.6 -3.6,-0.3 -5.9,4.8 -2.1,4.5 -2.4,6.1 -1.3,9.3 1.2,4.4 1.5,16.1 0.4,24 l -0.8,5.2 H 7.9 c -4,0 -5.6,-0.4 -6.3,-1.9 C 1,486.6 0.5,415.4 0.3,329.6 L 0.1,173.4 h 2.8 c 1.6,0 4.3,0.9 5.9,1.9 6.4,3.9 19,12 24.3,15.6 3.1,2.1 6.3,3.8 7.1,3.8 1.3,0 5.3,2.9 18.3,13.5 2.2,1.8 5.5,3.6 7.3,4 11.8,2.9 17.5,7.6 23.2,19 3.1,6.4 10.3,12.2 22.4,18.5 1.8,0.9 3.7,2.5 4.3,3.5 0.6,1.1 2.7,2.6 4.8,3.3 3.6,1.1 8.1,5.5 14.5,13.8 3.6,4.7 10,10.9 11.2,10.9 0.7,0 3.3,1.8 5.9,3.9 2.7,2.2 6.7,4.7 9.1,5.5 3.4,1.1 5.5,3.3 10.7,10.8 3.6,5.3 6.7,11.1 7.1,13.5 1.1,6.3 5.8,10.2 13.3,11.1 4.9,0.6 7.2,1.6 11.3,4.9 2.8,2.4 5,4.9 5,5.8 0,0.8 1.7,2.5 3.7,3.7 1.9,1.1 6.1,4.3 9,7 5.2,4.6 5.4,4.9 5.2,10.5 -0.4,9.9 1.5,30.3 3,32.6 0.9,1.2 1.6,3 1.6,4 0,4 7.8,5.5 28,5.6 20.3,0 20.4,0.1 21.8,6.1 0.4,1.9 2.1,4.7 3.7,6.4 2.5,2.6 2.9,4.3 3.1,10.5 l 0.2,7.4 11.9,12.1 c 7.3,7.4 12.2,13.3 12.7,15.4 0.9,3.9 5.8,11.3 8.4,12.7 1.3,0.8 4,0.1 9.5,-2.5 4.9,-2.2 10,-3.8 14.1,-4 5.2,-0.4 7,-1.1 9.8,-3.8 3.4,-3.3 3.5,-3.7 3.5,-13.3 0,-10.9 -0.1,-10.5 11.4,-22.9 1.7,-1.8 4.8,-5.8 6.8,-9 2.1,-3.3 5.8,-7.1 9.2,-9.1 3.1,-2 7.2,-4.8 9,-6.4 1.9,-1.5 4.9,-3.6 7,-4.6 6.4,-3.3 16.9,-1.8 19,2.6 2.4,4.9 4.4,43.7 2.8,50 -0.9,3.1 -0.9,8.6 -0.1,18.5 4,49.3 3.9,60.7 -0.8,70.1 -2.2,4.5 -1.6,10.9 1.3,12.3 1.2,0.6 4.4,3.3 7,5.8 5,5 8.7,6.5 20.4,7.7 4.7,0.6 8.6,1.7 11.1,3.4 2.1,1.5 4.4,2.7 5,2.7 0.7,0 0.8,2.1 0.1,5.9 -0.4,3.1 -0.8,13.3 -0.8,22.5 0.2,13.7 0.6,17 2,18.5 1.5,1.6 4.8,1.8 21.6,1.7 10.9,-0.1 27.6,-0.9 37,-1.7 19.2,-1.8 19.5,-1.9 20.9,-10.1 0.4,-2.9 1.9,-5.6 3.9,-7.5 4.1,-3.9 4.5,-6.1 4.9,-29.9 0.2,-12 0.9,-21.4 1.7,-23.2 1.2,-3.1 1.5,-3.1 11.1,-3.1 5.5,0.1 14.5,0.8 20,1.8 18.3,3 37.6,4.1 37.6,2.2 0,-0.7 2,-2 4.4,-3 3.8,-1.7 4.6,-2.6 5.6,-6.7 0.7,-2.7 2,-7.3 3,-10.2 1.2,-3.6 1.6,-7.4 1.1,-11.8 -0.3,-3.6 -0.9,-10.3 -1.2,-14.9 -1,-13.5 -1,-13.5 -6.3,-13.5 -4.6,0 -5.5,-0.7 -12.6,-8.9 -2.8,-3.1 -3.8,-3.6 -6.7,-3 -13.2,2.4 -21.3,2.9 -25.2,1.8 -6.3,-1.7 -16.6,-1.5 -18.5,0.6 -2.4,2.2 -2.8,5.3 -3.6,23 -0.8,17.9 -1.3,21.3 -3.5,21.3 -1.3,0 -1.6,-3.5 -1.5,-19.8 0,-21.6 0.9,-30.3 3.4,-31.8 0.9,-0.6 8.2,-1 16.1,-0.9 8.1,0 17.8,-0.4 21.9,-1.1 4,-0.7 10.1,-1.2 13.6,-1.2 5.5,0 6.7,0.4 10.7,3.9 3.6,3.3 5.3,3.9 9.5,3.9 3.8,0 5.6,0.6 7.4,2.6 4.6,4.9 5.2,7.5 5.7,27.7 0.6,18.7 0.4,19.8 -2,24.6 -1.3,2.7 -3.1,7.4 -4,10.3 -0.9,3 -2.7,6.2 -3.9,7 -2,1.5 -1.5,1.7 6.5,2.6 4.8,0.6 11.3,0.8 14.5,0.6 3.3,-0.1 6.8,0.2 8.1,0.9 1.7,0.9 2.6,0.8 3.5,-0.3 0.8,-1 4.9,-1.9 10.5,-2.4 5,-0.4 11.9,-1.5 15,-2.5 3.3,-0.9 7.5,-1.5 9.4,-1.2 3.3,0.3 3.8,0.9 5.6,5.9 1.7,4.9 1.8,8.7 1.3,30.3 -0.6,21.3 -0.4,24.9 1,26.1 1.1,0.9 8.5,1.8 20.6,2.5 10.4,0.7 22.4,1.7 26.6,2.4 4.3,0.7 8,0.9 8.4,0.6 1.2,-1.2 2.5,-13.1 2.8,-26.5 0.1,-7.1 0.9,-13.9 1.6,-15 0.8,-1.5 0.9,-3.4 0.2,-5.6 -1.7,-5.7 -1.1,-10.7 1.5,-14.2 l 2.6,-3.4 11.2,0.7 c 20.2,1.2 20.7,1.3 20.7,5.3 0,1.8 -1,4.6 -2.2,6.2 -1.2,1.6 -2.2,3.5 -2.2,4.3 0,0.8 -0.9,2.6 -2,4 -1.2,1.5 -2.5,4.1 -2.9,5.9 -0.4,1.8 -2,5 -3.6,7.3 -2.4,3.6 -2.7,5.2 -2.7,15 0,7.6 -0.6,12.8 -1.9,16.6 -1.9,5.2 -1.9,5.4 0.2,7.8 1.2,1.2 3.5,2.9 5,3.5 3.4,1.3 15.6,1.2 17.3,-0.1 0.7,-0.6 10.4,-1.6 21.6,-2.4 17.7,-1.1 20.7,-1 23,0.4 1.5,0.9 5.4,1.7 8.7,1.8 11.2,0.3 10.9,0.4 12.2,-4.7 0.6,-2.7 1.7,-7.1 2.4,-9.9 1.2,-4.7 1.1,-10.1 -0.7,-25.5 -0.4,-4.4 -0.2,-6.5 1.1,-8.4 1.2,-1.7 1.8,-4.9 1.8,-10 0,-5.4 0.4,-7.8 1.8,-8.9 0.9,-0.9 2.1,-2.4 2.8,-3.5 1.2,-2.4 -0.6,-37.3 -2.6,-47.8 -1.1,-5.8 -1,-7.6 0.6,-11.8 1.3,-3.4 1.7,-6.6 1.1,-11.1 -0.3,-4.1 -0.2,-6.6 0.7,-7.1 0.7,-0.4 1.2,-2 1.2,-3.6 0,-1.6 0.6,-3.9 1.2,-5.2 1.1,-2.1 1.9,-2.2 12.7,-1.5 13.6,0.9 20.5,0 18.5,-2.4 -0.9,-1.1 -1,-4.1 -0.4,-9.6 0.7,-7.5 1,-8.4 4.8,-11.7 l 4.1,-3.6 v -10.1 -10 l 4.8,-5.2 c 2.9,-3.3 4.7,-6.3 4.7,-8 0,-1.6 0.6,-4.1 1.3,-5.7 1.1,-2.4 1,-3.5 -0.6,-6.2 -2,-3.5 -2.6,-12.3 -0.8,-14.1 0.7,-0.7 0.1,-5 -1.7,-12.2 -1.6,-6.2 -2.8,-12.3 -2.8,-13.6 0,-4.1 3.1,-10.1 7.3,-13.8 6.1,-5.3 15.5,-4.8 21.8,1.1 l 2.7,2.5 -1,41 c -0.6,22.5 -0.8,54.2 -0.4,70.2 0.8,40.5 0.6,99.1 -0.3,102.9 -0.9,3.1 -4.1,4.3 -4.1,1.3 0,-1 -1.1,-2.1 -2.5,-2.7 -3.9,-1.5 -60.3,-1.5 -63.9,0 -2.7,1.1 -3,2 -3.8,8.6 -1.5,12.1 -0.8,35.9 1.2,45.6 2,10.1 2.1,12.2 1.1,16.4 -1.3,5 1.9,7.1 9.9,6.2 5.5,-0.6 7.3,-0.2 10.2,1.5 4.4,2.7 11.4,3.1 31.8,2 12.1,-0.8 16.3,-1.3 16.7,-2.6 1.3,-3.6 2.8,-1.3 2,3.3 -1.3,9.1 -2.2,31.6 -1.5,38.9 0.4,4 1.7,9.2 2.6,11.4 1.3,3.5 1.7,11.3 1.7,43.6 0,43.8 0,43.6 -7.6,47.7 -2.1,1.2 -5.9,3.3 -8.5,4.6 -2.8,1.6 -6.6,2.5 -9.9,2.6 -2.9,0 -5.6,0.6 -5.9,1.1 -0.4,0.7 1,1.1 3.6,1.1 6.5,0 15.4,4.6 17,8.9 1.8,4.1 0.7,17.3 -1.6,19.6 -1.2,1.2 -0.8,1.9 2.9,3.9 3.9,2.2 4.4,2.9 4.4,7 v 4.4 L 651.85631,828.93449 C 632.81201,829.10098 635.11094,819.79052 644.7,805.3 Z M 114.9,700.7 c 1.9,-0.6 9.1,-1.3 16,-1.7 7,-0.3 12.9,-1.1 13.2,-1.6 0.9,-1.6 7.5,-1.1 10,0.6 1.2,0.8 6.1,1.9 10.7,2.2 7.7,0.8 8.6,0.6 10.5,-1.5 1.2,-1.3 2.8,-2.4 3.7,-2.4 0.8,0 1.5,-0.8 1.5,-1.7 0,-0.9 -0.7,-1.7 -1.5,-1.7 -1.5,0 -6.4,-5.8 -6.4,-7.5 0,-0.4 -2.7,-1 -5.8,-1.1 -3.3,-0.1 -11.4,-0.8 -18.3,-1.5 -6.7,-0.7 -19.5,-1.5 -28.3,-1.8 -15.7,-0.6 -15.9,-0.6 -17.3,2 -1.8,3.4 -1.2,13 1,16.8 1.9,3.3 3.1,3.4 10.9,0.7 z m -2.7,-135.5 c 1.5,0 6.6,-11.1 6.6,-14.4 0,-3.1 -2.8,-8.9 -6.2,-12.6 -1.5,-1.6 -2.8,-3.8 -3.1,-5 -0.3,-1.2 -0.6,0.1 -0.7,3 0,2.9 -0.6,6.5 -1.2,8.1 -0.6,1.7 -0.7,5.2 0,9.3 0.7,3.6 1.5,9.1 1.9,12.1 0.6,4.1 0.9,4.8 1.2,2.6 0.2,-1.8 0.9,-3.1 1.5,-3.1 z"
       id="path2566"
       sodipodi:nodetypes="ccscccccsscsscscccccccscscsccccccccssccssccssccccccccsccccccccccsscccccssccscccccccccsccccccsccsccccccscccccccccscsscccccccccccccccscccccccccscccccccccccccccscssscssccsccscscccscccccssccccccccccscscscscssscccsccccscccsscscccccccccccsccccccccscccsccscccccccsccccccsccccscccccccccccscccccccccccccscccccccccccscccccscccccsccccscsccccccccccccccccccccccccssscscscccccccccccsccccccscccccccccsccscsccccccsccccccccccccsccccscscscccccccccsssscccccccsscscccccs" />
    <path
       d="M637.6 368.4 c-0.4 -1.1 0.1 -1.7 1.6 -1.7 2.5 0 2.9 -1.1 1 -3 -0.9 -0.9 -0.7 -1.5 1 -1.9 1.5 -0.6 2.4 -2.1 2.8 -4.9 1.3 -8.7 2.1 -28.3 1.5 -34.2 -0.8 -5.8 -1 -6.2 -5.3 -7.8 -7 -2.8 -5.5 -4.1 4.7 -4.1 l9 0 1.8 4.3 c1.5 3.5 1.7 7.2 1.1 22.7 -0.7 17.7 -2.4 26.9 -5.6 31.2 -1.6 2 -12.7 1.8 -13.6 -0.3z"
       id="path2568" />
    <path
       d="M490.4 197.1 c-4.5 -1.5 -5.3 -5.4 -1 -5.4 1.5 0 5.4 -1.2 8.7 -2.8 3.3 -1.6 7.2 -2.8 8.6 -2.8 1.6 0 6.1 -1.3 10.1 -2.9 5.6 -2.2 9.1 -2.9 14.7 -2.8 6.7 0.1 7.6 -0.1 10.4 -3 l3 -3.3 -0.2 -20.1 c-0.1 -14.8 -0.6 -20.7 -1.7 -22.5 -1.5 -2.1 -2.8 -2.5 -12.4 -2.8 -8.5 -0.2 -12 -0.9 -16 -2.9 -4.5 -2.1 -6.4 -2.5 -15.1 -2 -5.5 0.2 -11.3 0.8 -12.9 1.2 -3.7 0.9 -5.5 4.7 -5.5 11.6 0 2.9 -0.3 10.2 -0.8 16.3 -0.6 9.2 -1 10.9 -2.6 10.9 -1.7 0 -2 -2 -2.7 -17.2 -0.9 -19.2 0.2 -26.8 4.3 -29.4 1.5 -0.9 8.4 -1.7 19.3 -2.1 16.5 -0.8 17 -0.7 22.4 2 4 2 8.2 2.9 15.8 3.5 l10.4 0.8 -1.8 -5.9 c-1 -3.4 -1.5 -7.5 -1.1 -9.9 0.3 -2.2 0.7 -4.5 0.8 -5.2 0.1 -0.6 -0.2 -5.8 -0.7 -11.6 -0.8 -8.7 -0.6 -11.4 1.2 -16.8 3.3 -10.1 2.2 -9.6 20.1 -8.9 18.7 0.9 23.8 2 25.2 5.9 1.5 3.8 1.5 16.9 -0.1 17.8 -0.7 0.4 -1 5.3 -0.9 12.7 0.2 6.6 -0.1 14.9 -0.6 18.5 -1.2 8 -1.3 8 -21.4 8 l-14.6 0 -0.1 6.7 c0 3.8 -0.2 9.1 -0.4 11.9 -0.2 2.8 0 10.7 0.4 17.5 0.6 7 0.7 13.8 0.2 15.4 -0.3 1.6 -2.8 4.9 -5.5 7.5 l-4.7 4.6 -10.9 -0.2 c-6.4 -0.2 -11.4 0.2 -12.3 0.9 -2.8 2.4 -19.4 8.2 -22.8 8.1 -1.8 -0.1 -5 -0.7 -7 -1.2z"
       id="path2570" />
    <path
       d="M817.8 117.9 c-3.1 -1.2 -6.4 -2.5 -7 -2.9 -2.1 -1.2 -1.3 -7.7 1.6 -12.3 4.8 -8 5.5 -10 5.9 -20.2 0.3 -8.3 0.9 -10.3 2.6 -11.6 1.1 -0.8 2.1 -2.1 2.1 -3 0 -2 5.4 -6.2 7.8 -6.2 1.1 0 4.1 -1 6.8 -2.2 2.7 -1.2 7.1 -2.2 9.6 -2.2 4.1 0 4.8 0.3 5.5 2.7 0.3 1.5 0.4 3.9 0.2 5.3 -0.2 2.2 -1.1 2.8 -4.5 3 -5 0.4 -6.2 2.9 -4.8 11.2 0.4 2.9 1 10.9 1.2 17.7 l0.3 12.3 -6.2 5.3 c-7.3 6.1 -11.4 6.7 -21.4 3.1z"
       id="path2572" />
    <path
       d="M720.8 82.9 c-1.1 -0.6 -2 -1.8 -2 -2.6 0 -1.8 -9.2 -8.5 -13.1 -9.5 -1.7 -0.4 -3.3 -1.6 -3.7 -2.5 -3.9 -8.6 -5.5 -10.5 -8.9 -10.9 -4.1 -0.4 -6.8 -3.8 -6.8 -8.6 0 -2.9 0.7 -3.6 4.9 -5.4 4 -1.7 6.6 -1.9 15 -1.2 l10.2 0.8 0.9 -3.8 c1 -3.5 1.3 -3.8 8.3 -5 14.9 -2.9 36.8 -4 51.5 -2.7 7.7 0.7 18.8 1.3 24.8 1.5 13.8 0.3 14.5 0.8 14.5 11.4 0 7.4 -0.2 8.4 -2.8 10.4 -1.5 1.2 -3.3 3.5 -3.9 5.2 -1.5 3.9 -6.8 4 -11.4 0.1 -4.6 -3.9 -8.9 -4.8 -10.3 -2.2 -3.3 5.4 -5.9 7.3 -11.8 8.4 -9.1 1.7 -15.1 1.3 -21.6 -1.1 -3.3 -1.2 -6.1 -2.2 -6.2 -2.2 -1 0 -5.9 9.3 -5.9 11.1 0 1.3 -1.3 2.7 -3.4 3.7 -1.8 0.8 -3.4 2.1 -3.4 2.9 0 3 -10.8 4.8 -14.8 2.4z"
       id="path2574" />
    <path
       d="M347.2 77.9 c-3.7 -1.6 -8.9 -2.8 -11.4 -2.8 -3.1 0 -7.2 -1.1 -11.3 -3.3 -6.1 -3 -9.6 -4.6 -17.5 -7.8 -2.9 -1.1 -3.1 -1.7 -2.8 -6.6 l0.3 -5.3 12.3 0.1 c16.5 0.2 28 1.8 34.8 4.8 11.4 5.2 19.1 3.3 32.2 -8 5.2 -4.3 10.3 -8.3 11.6 -8.7 6.8 -2.7 12 -3.5 19.1 -3 4.4 0.3 14.7 1.1 23 1.8 16.7 1.3 28.7 0.8 38.1 -1.8 14 -3.9 20.2 -3.3 23.5 2.2 3.1 4.9 3 14 -0.1 18.1 -2.1 2.7 -3 2.9 -10.2 2.9 -6.8 0 -9.2 0.6 -16.4 4 -11.4 5.5 -13.8 6.2 -25.5 7.3 -5.5 0.4 -12.3 1.2 -15 1.7 -2.9 0.4 -6.6 0.1 -9.3 -0.8 -3.9 -1.2 -4.6 -1.1 -7.6 1 -1.8 1.3 -4 2.5 -5 2.5 -1 0 -2.9 0.7 -4.3 1.6 -1.8 1.2 -8.9 1.8 -27.1 2.2 -24.6 0.7 -24.7 0.7 -31.3 -2.1z"
       id="path2576" />
  </g>
  <g
     fill="#a41416"
     id="g2604">
    <path
       d="M 0.03030722,828.9725 0.2,816.5 v -47.4 -47.4 l 3.9,-4.1 c 2,-2.4 4.5,-4.3 5.4,-4.3 4.9,0 15.3,2.9 18.3,5.2 2.2,1.6 4.4,2.4 5.9,1.9 1.2,-0.3 3.5,0.1 4.8,1 3,1.9 11.8,1.5 14.4,-0.8 3.5,-2.9 6.7,-4 8.7,-2.9 1.8,0.9 6.6,1.6 22.8,3 l 6.4,0.7 0.2,13.6 c 0.2,7.5 0.2,20.2 0.1,28.1 -0.2,13.5 0.2,17.8 3.4,28.7 0.8,2.7 0.8,4.9 -0.1,7.2 -0.9,2.6 -0.8,3.7 0.4,5.7 1.5,2.2 2.9,2.7 9.3,3 6.1,0.2 8.6,-0.1 12.9,-2.2 4.1,-2 5.8,-2.2 7.6,-1.3 1.2,0.7 4.8,1.7 8.1,2.2 3.1,0.7 7,2.2 8.3,3.5 1.6,1.5 2.7,1.9 3.3,1.1 0.3,-0.7 2.5,-1.2 4.7,-1.2 2.2,0 6.3,-1 9,-2.4 5,-2.5 7.7,-2.5 20.3,0 3.7,0.7 8.1,0.8 11.2,0.1 3,-0.6 6.1,-0.6 7.2,0.1 1,0.6 4.1,1 6.8,1 3.9,0 5.6,-0.7 8.3,-3.3 1.9,-1.7 4,-3.4 4.8,-3.7 1.2,-0.3 1.2,-1.2 0.2,-4.3 -1.8,-5 -1.7,-14 0.2,-19.6 5.5,-16.1 5.6,-16.9 3.6,-22.1 -1,-2.7 -1.8,-7.6 -1.8,-10.9 0,-4.7 -0.7,-7.2 -3.4,-11.6 -4.9,-8.1 -4.4,-13.2 1.7,-13.2 0.9,0 2.4,0.9 3.5,1.9 1.1,1.2 3.9,2 7.3,2.1 8.4,0.4 9.5,1.5 10.3,10 0.4,4 1.6,9.2 2.7,11.4 1,2.4 1.8,6.1 1.6,8.7 -0.2,3.3 0.3,5.4 1.7,6.7 1.8,1.7 2,1.7 2.9,0.1 0.6,-1 1.5,-1.8 2,-1.8 1.3,0 9,10.9 9,12.9 0,1 1,1.7 2.4,1.7 1.7,0 2.1,-0.6 1.7,-1.7 -0.3,-1.1 0.6,-2.2 2.8,-3.5 3.1,-1.6 3.7,-1.6 5.4,0 2.2,2 3.5,1.2 5.9,-3.8 4,-8.5 5.4,-22.7 2.6,-28 -1.7,-3.3 -1.7,-3.9 -0.1,-8 1,-2.5 1.8,-5.9 1.8,-7.8 0,-3.1 3.7,-8.7 5.7,-8.9 1.6,0 3.1,13.7 3.1,27.5 0,8.3 0.6,15.8 1.3,17.6 1,2.4 0.9,6.6 -0.2,17.9 -0.9,8.2 87.79846,47.90567 87.99846,53.80567 -19.53311,0.19513 -79.0388,-0.20409 -84.14735,0.0683 -5.73477,0.0104 -7.46593,-0.23033 -16.06593,0.0697 -7.29137,-0.0234 -65.11261,0.004 -93.33407,0.19266 -12.50173,-0.22303 -160.106568,0.0728 -184.92080278,-0.0638 z M 68.2,793.9 l 2.1,-2.2 2,2.2 c 1.1,1.2 2.4,2.2 2.8,2.2 0.3,0 1.6,-2.5 2.7,-5.5 1,-3 2.9,-6.4 4.1,-7.5 1.1,-1 2.1,-2.7 2.1,-3.6 0,-2.5 -3.4,-5.8 -5.7,-5.8 -1.2,0 -2.7,-1 -3.5,-2.2 -0.8,-1.2 -2.2,-2.2 -3.3,-2.2 -1,0 -2.5,-0.8 -3.3,-1.7 -2.5,-2.9 -4.5,-2 -3.8,1.7 0.9,3.9 -3.1,14.2 -6.4,16.8 -2.8,2.2 -2,4.3 2.7,7.6 4.4,3 4.7,3 7.3,0.2 z"
       id="path2580"
       sodipodi:nodetypes="cccccsccccccccccccccccccsccccscccccscscccccccsssccccccscsccccccccccsccsssscccccc" />
    <path
       d="m 369.5,827.7 c -16.8,-3.5 -22.4,-3.8 -36.7,-2.5 -12.3,1.2 -15,1.1 -20.7,-0.3 -3.6,-1 -7.7,-1.9 -9.3,-2.1 -1.6,-0.3 0.8,-0.6 5,-0.8 6.5,-0.2 7.3,-0.4 4.5,-1.2 -1.8,-0.4 -5.3,-1.2 -7.5,-1.6 -3.3,-0.4 -4.3,-1.2 -4.3,-2.8 0,-4 4.5,-5.7 15.8,-5.6 5.8,0 13.3,-0.1 16.7,-0.2 3.4,-0.1 8.2,0 10.7,0.1 2.5,0.2 15.8,0 29.7,-0.4 l 25.2,-0.9 2.6,2.9 c 2,2.1 16.08938,3.55173 15.68938,7.35173 -0.3,4.9 37.51992,6.96892 31.91992,8.46892 -7.1,1.9 -63.93154,0.36091 -70.31084,0.58502 z"
       id="path2582"
       sodipodi:nodetypes="cccccccscscccccccc" />
    <path
       d="M949.8 827.7 c8.6 -0.6 10.7 -1 11 -2.5 0.4 -2.2 -5.5 -5.9 -11.1 -7.1 -2.1 -0.3 -4.5 -1.1 -5.4 -1.7 -2.4 -1.6 0.4 -4.6 4.3 -4.6 1.6 0 3.6 -0.4 4.5 -1 2.2 -1.5 3.7 -10.8 2.1 -14.2 -1.8 -3.9 -9.3 -7.5 -15 -7.3 -2.5 0 -5.5 -0.6 -6.6 -1.5 -2 -1.5 -2 -1.6 0.2 -5.3 2 -3.5 2.6 -3.8 7.2 -3.6 3.4 0.2 6.4 -0.6 9.5 -2.2 2.6 -1.3 6.5 -3.5 8.7 -4.6 2.5 -1.3 4.8 -3.8 6.1 -6.5 4.3 -9.2 4.7 -6.2 4.7 29.4 l0 33.6 -15.4 -0.2 c-15.1 -0.2 -15.3 -0.2 -4.8 -0.8z"
       id="path2584" />
    <path
       d="m 425.4321,829.32382 c -1.2,-1.6 -9.42055,-12.23429 -10.12055,-12.23429 -0.7,0 48.12313,-12.64803 48.12313,-13.34803 0,-0.6 10.46532,4.8585 11.36532,4.8585 0.8,0 -0.28271,-9.40672 0.51729,-10.40672 1.3,-1.6 5.48271,6.80672 13.68271,7.40672 9.2,0.7 9.8,0.6 12.2,-2 3.5,-3.7 9.1,-6.2 13.9,-6.2 4,0 4,0 4,-4.9 v -4.8 l 5.9,-0.8 c 9.2,-1 11.7,-0.8 16.9,1.7 3.7,1.7 7.8,2.4 16.6,2.7 6.3,0.2 12.1,0.4 12.7,0.6 0.7,0 11,-0.3 23.2,-0.7 20.6,-0.7 22.3,-0.6 26.9,1.6 7.6,3.6 10.8,4 24.2,3.8 10.7,-0.2 12.6,0 12.6,1.5 0,0.9 -0.7,1.7 -1.5,1.7 -1.5,0 -4.45869,25.56858 -5.25869,27.96858 -0.3,1.1 -16.33503,1.24585 -22.83503,1.24585 -21.58289,-0.008 -124.73503,0.0505 -136.17349,0.084 -14.81968,0.39123 -55.65074,0.14301 -66.90069,0.22537 z"
       id="path2586"
       sodipodi:nodetypes="cssscccssccccccccsscccc" />
    <path
       d="M821 733.7 c0.2 -3.6 -0.1 -8.4 -0.6 -10.8 -1.3 -6.2 0.1 -14 3.4 -17.3 2.2 -2.2 2.7 -3.8 2.7 -9.3 0 -3.6 0.4 -6.8 1 -7.3 0.6 -0.3 2.2 0.6 3.8 2 2.1 2.2 3.8 2.7 9.3 2.8 3.6 0 8.9 -0.7 11.6 -1.6 7 -2.4 13.1 -1.1 17.7 3.5 2.8 2.8 3.7 4.7 3.7 7.7 0 2.2 0.8 5.4 1.8 7 1.7 2.4 1.7 3.4 0.3 8.1 -2.1 7.8 -4.1 9.5 -10.3 8.6 -4.3 -0.7 -5.7 -0.3 -8.5 1.6 -4 2.9 -4.6 2.9 -9.5 0 -2.1 -1.2 -4.5 -2 -5.2 -1.6 -1.6 1 -7.7 2 -11.4 1.9 -2.2 -0.1 -3.1 0.4 -3.1 1.8 0 1.1 -0.7 2.7 -1.3 3.4 -1.1 1.1 -1.1 1.9 0 3.6 1.2 2 1.1 2.2 -2.1 2.2 l-3.5 0 0.3 -6.4z"
       id="path2588" />
    <path
       d="M100.9 704 c-0.9 -1.5 -1.9 -5.4 -2.4 -8.7 -0.4 -3.4 -1.1 -7.4 -1.5 -9 -0.4 -2 0.1 -3.7 2 -6.1 l2.7 -3.3 17.5 0.2 c9.6 0.1 18.8 0.7 20.4 1.2 1.6 0.7 6.7 1.1 11.4 1 4.8 0 9.9 0.4 11.6 1 1.6 0.7 5.2 0.9 8.1 0.6 3.6 -0.4 5.3 -0.2 5.3 0.7 0 0.8 1.1 2.8 2.5 4.6 1.7 2.4 2.7 2.9 3.3 2 1.2 -2 1.8 -1 2.6 5.6 0.7 5.3 0.6 5.8 -1.3 5.8 -1.1 0 -3 1 -4.1 2.2 -1.8 2 -3.4 2.2 -13 2.1 -8.5 -0.1 -11.7 -0.7 -14 -2.2 -2.2 -1.5 -3.6 -1.7 -4.6 -0.9 -0.7 0.7 -6.5 1.3 -12.9 1.6 -6.4 0.2 -14.6 1.1 -18.3 2.1 -9.3 2.5 -13.1 2.4 -15.1 -0.7z"
       id="path2590" />
    <path
       d="M305.8 594.2 c-1.7 -3 -2.4 -3.3 -9.4 -3.5 -4.1 -0.1 -11.9 -0.1 -17.2 0.1 -6.2 0.2 -11.3 -0.2 -14.6 -1.3 -2.8 -0.9 -8.9 -2 -13.5 -2.5 -4.8 -0.4 -9.9 -1.6 -11.9 -2.8 -1.9 -1.1 -5.2 -2.4 -7.1 -2.8 -1.9 -0.4 -3.5 -1.3 -3.5 -2 0 -0.7 -0.9 -2.1 -1.9 -3.3 -1.9 -2.1 -1.6 -2.1 13.1 -1.5 8.3 0.4 29.4 0.8 46.9 0.7 l31.7 0 4.9 5.3 c4.3 4.5 5 5.9 5 10 0 5.5 -0.1 5.5 -13 6.3 -7.7 0.4 -8 0.3 -9.8 -2.7z"
       id="path2592" />
    <path
       d="M106.5 572.1 c-0.6 -2.4 -1.1 -5.9 -1.1 -8.1 0 -2.1 -0.8 -7 -1.6 -10.5 -1.3 -5.7 -1.3 -7.3 0 -11.2 0.9 -2.6 1.3 -5.7 1 -7.2 -0.3 -1.5 -0.1 -5.6 0.7 -9.2 1.1 -6.1 1.1 -6.8 -1.2 -10 l-2.4 -3.5 5.5 0 5.4 0 0 9.5 c0 8.7 0.3 9.9 2.9 12.7 3.6 3.8 5.9 8.5 7 13.8 0.8 4.7 -2.7 15.6 -6.1 19 -1.1 1.1 -2.2 3.3 -2.5 4.6 -0.2 1.7 -1.3 2.8 -3.4 3.4 -2.8 0.8 -3.1 0.4 -4.3 -3.3z"
       id="path2594" />
    <path
       d="M873.8 562.5 c-4.3 -1.1 -7.5 -1.2 -11.8 -0.4 -8.5 1.7 -16.3 0.4 -19.8 -3 -3.8 -3.7 -13.7 -5.6 -26.8 -5.3 -8.3 0.2 -9.2 0.1 -8 -1.5 1.6 -1.9 2.2 -1.7 -9 -2.4 -3.4 -0.1 -8.2 -0.6 -10.8 -0.9 -4.1 -0.6 -4.8 -0.2 -7.1 2.8 -1.6 2 -2.2 4.1 -1.8 5.5 0.7 2 -0.1 2.1 -14.2 2 -14.1 0 -15.3 -0.2 -21.3 -3.3 -4 -2 -8.2 -3.3 -11.2 -3.3 -2.7 0 -6.8 -0.6 -9.3 -1.1 -5 -1.2 -7.3 0.4 -7.3 5.3 0 5 -3 2.6 -5 -4.1 -1.1 -3.8 -2.5 -7.1 -2.8 -7.3 -0.4 -0.3 -3.3 0.2 -6.3 1 -3 0.9 -9.5 1.9 -14.5 2.4 -5.5 0.4 -9.8 1.5 -10.9 2.5 -1.3 1.2 -3.1 1.5 -6.2 0.9 -2.4 -0.3 -6.5 -0.7 -9.3 -0.6 -7.4 0.1 -12.3 -1 -12.3 -2.8 0 -0.9 0.7 -1.7 1.6 -1.7 0.9 0 3.7 -1 6.4 -2.2 2.7 -1.2 6.3 -2.2 7.8 -2.2 1.7 0 4.1 -1.3 6.1 -3.4 1.8 -1.8 3.9 -3.4 4.8 -3.4 1.7 0 1.1 -2.7 -1.7 -8.2 -0.9 -1.7 -1.8 -8.2 -2.2 -14.6 -0.4 -9.3 -1.1 -12.2 -3.1 -15.5 -1.6 -2.4 -2.8 -6.4 -3.1 -10.1 -0.6 -6.1 -3.9 -19.4 -5.6 -22 -0.6 -0.8 -2.1 -1.5 -3.7 -1.5 -1.5 0 -5.2 -1.8 -8.3 -4 l-5.6 -4 0.8 -12.7 c0.6 -11.4 0.4 -13.1 -1.5 -15.9 -1.9 -2.7 -2.1 -5.4 -2.1 -20.5 -0.1 -9.5 -0.6 -20.7 -1 -24.9 -0.6 -4 -0.7 -9.2 -0.2 -11.4 0.8 -3.8 1 -4 5 -4 2.4 0 4.8 -0.7 5.4 -1.3 2.9 -3.7 4.8 -13.5 5.5 -27.7 0.6 -12.6 0.4 -16 -1 -19.4 -1 -2.4 -2.6 -4.3 -3.5 -4.3 -2.5 0 -2.2 -2.5 0.6 -7.2 2.1 -3.6 2.2 -5.5 2 -20.9 -0.1 -9.2 -0.2 -19.5 -0.2 -22.7 0 -6.1 0 -16.5 -0.1 -45.2 -0.1 -10.3 -0.6 -16.5 -1.5 -18.2 -2.1 -3.6 -7 -7.1 -9.9 -7.1 -1.5 0 -5.3 -1.8 -8.5 -3.9 -3.4 -2.1 -6.8 -3.9 -7.7 -3.9 -1 0 -4.8 -0.8 -8.4 -1.8 -3.7 -0.9 -11.2 -1.8 -16.8 -1.9 l-10 -0.2 -1.7 -6.7 c-1.2 -5.3 -1.3 -8 -0.3 -12.9 0.8 -3.8 0.9 -10.9 0.4 -18.8 -0.8 -12.1 -1 -12.9 -3.9 -15.4 -3.8 -3.4 -3.8 -4.6 -0.2 -5.5 2.2 -0.6 2.8 -1.5 2.8 -4.4 0 -2 0.4 -5.2 0.9 -7 0.6 -1.9 0.7 -8.1 0.3 -13.9 -0.6 -8 -0.3 -11 0.9 -12.7 2 -2.9 1 -12 -1.6 -13.9 -1.1 -0.8 -4.1 -1.8 -6.8 -2.1 -2.7 -0.3 -7.1 -0.8 -9.8 -1.1 -3.1 -0.4 -6.3 -1.9 -9 -4 -3.7 -3 -4.1 -3.9 -4.1 -8.7 0 -7.3 2.1 -9.1 10.8 -9.1 5.4 0 8.2 0.8 14.2 3.8 5.3 2.6 9.9 3.9 15.1 4.5 7.5 0.8 7.6 0.7 12.2 -3.3 6.8 -5.8 20.6 -9.1 26.2 -6.2 1.2 0.8 13.1 1.2 30.2 1.3 26.1 0 32.7 0.8 27 2.9 -2.1 0.8 -2.2 1 -0.7 3.3 1 1.5 3.1 2.6 5.2 2.8 3.4 0.3 4.9 2.2 8.9 10.9 0.4 0.9 2.1 2 3.7 2.5 3.9 1 14.5 8.7 13.7 10 -0.3 0.6 0.3 1.6 1.6 2.1 2.6 1.5 8 -0.2 8 -2.4 0 -0.8 1.6 -2.1 3.4 -2.9 2 -0.9 3.4 -2.4 3.4 -3.6 0 -2.9 4.3 -9.9 6.8 -11.2 1.5 -0.9 4.1 -0.4 10.2 1.7 6.5 2.4 9.3 2.8 13.8 2.1 8.3 -1.1 10.3 -2.1 13.5 -7.2 2.1 -3.3 3.6 -4.5 5.6 -4.5 3.8 0 10.5 2.9 13.7 5.8 l2.6 2.4 1.1 -3.3 c0.7 -1.8 2.5 -4.1 4 -5.3 l2.8 -2.1 -0.3 8.3 -0.3 8.2 9.5 -0.4 9.5 -0.3 -2.5 2.7 c-1.5 1.5 -2.6 3.3 -2.6 4 0 0.7 -1 1.9 -2.4 2.9 -2 1.3 -2.4 2.6 -2 9.3 0.3 7.5 -1.3 15 -4 18.3 -0.8 0.9 -2.2 3.4 -3.3 5.4 l-1.9 3.6 4.9 2.1 c9.9 4.3 11.1 4.1 17.7 -1.6 3.4 -2.8 5.9 -6.1 5.9 -7.1 -0.1 -1 -0.3 -3.1 -0.6 -4.7 -0.1 -1.6 0.1 -4.4 0.6 -6.3 0.4 -2.4 0.2 -4.9 -0.8 -7.3 -1.8 -4.5 -1.7 -16.4 0.3 -20 1 -2 2 -2.5 4.6 -2.1 3.8 0.6 4.7 -0.1 3.3 -2.5 -0.9 -1.3 -1.9 -1.2 -6.6 0.8 -5.4 2.2 -5.6 2.2 -4.6 0.2 0.8 -1.3 2.4 -2.1 4.5 -2.1 2.6 0 3.4 -0.4 3.4 -2.2 0 -2 0.8 -2.2 6.2 -2.2 4.1 0 7.8 -0.8 10.8 -2.4 3.9 -2 6.1 -2.2 14.8 -1.8 5.7 0.3 11.1 0.6 12 0.6 17.6 -0.1 25.8 -0.7 27 -1.7 0.9 -0.6 7.1 -1.5 13.8 -1.9 11.6 -0.7 12.3 -0.7 14.8 1.7 1.3 1.3 4.9 2.8 8 3.4 9.5 1.8 13.1 9.8 8.6 19 -1.7 3.4 -1.7 4.1 0 10.2 1.3 5.2 1.7 9.1 1.1 17.6 -1 15 0 21.3 3.5 22.2 2.1 0.6 2.8 1.7 3.4 5.4 0.8 5 0 76.1 -1.2 117.5 -0.3 13.5 -0.3 25.2 0.1 26.4 0.6 1.1 1.1 18.3 1.3 38.2 0.2 30.2 0.1 36.1 -1.2 36.1 -0.9 0 -1.9 -1.1 -2.2 -2.5 -0.8 -3.1 -5 -6.3 -9.4 -7.2 -2.7 -0.6 -4.1 0 -7.6 3.3 -6.5 5.8 -7.3 8.9 -4.8 18.8 1.1 4.6 2.7 10.1 3.4 12.3 1.1 3.5 1 4.6 -0.8 7.6 -2.1 3.6 -2.1 3.6 0.4 8 2.8 5 3 8.3 0.8 12.3 -0.9 1.6 -1.6 4.1 -1.7 5.9 0 2 -1.6 4.8 -4.3 7.8 -5.5 6.1 -5.8 7 -4.5 14.1 1.2 7.3 0 11.2 -5.3 15.6 -4.8 4 -6.1 11.3 -2.6 16 1.9 2.5 2.1 3.5 1 4.7 -2.4 2.9 -12.8 4.1 -22.8 2.9 -8.3 -1 -9.4 -0.9 -10.7 0.8 -0.8 1.1 -1.5 3.3 -1.5 4.8 -0.1 3.1 -2.9 7.7 -4 6.5 -0.3 -0.3 -0.9 -6.8 -1.2 -14.5 -1.6 -48.1 -2.4 -62.3 -3.3 -63.8 -0.3 -0.6 -3.7 -2.5 -7.5 -4.3 -3.8 -1.8 -8 -4.4 -9.2 -5.7 -4.7 -5.4 -20.7 -10.3 -22.1 -6.8 -0.1 0.6 -11.2 1.2 -24.6 1.5 -13.3 0.3 -24.8 0.9 -25.3 1.2 -2.7 1.7 -5.9 23.3 -5.9 40 0 15 -1.3 24.2 -4.4 30.7 -5.3 11.4 -4.9 22.5 0.9 31.5 2.8 4.1 3.5 4.5 9.1 5 3.4 0.3 8 0.1 10.1 -0.4 5.6 -1.6 24.3 -1.3 30.3 0.3 7.7 2.1 17.6 2.8 21.1 1.5 1.7 -0.7 8.5 -1.5 15.1 -1.8 6.7 -0.2 12.4 -0.8 12.8 -1.1 0.4 -0.3 1.9 -0.7 3.4 -0.7 2.4 0 2.6 0.3 1.9 2.6 -0.4 1.3 -0.8 3 -0.7 3.6 1.2 11.8 2.5 26.7 3 39.4 l0.8 15.7 -2.9 3.5 c-1.6 1.9 -2.9 4.3 -2.9 5.2 0 3.4 -6.4 3.8 -16.6 1.5z"
       id="path2596" />
    <path
       d="m 320.7,474.3 c -4.6,-1.1 -9.6,-6.7 -11.3,-12.8 -0.9,-3.3 -4.4,-7.6 -14,-17.4 -11.9,-12 -12.8,-13.2 -12.2,-16.4 1.2,-6.3 0.6,-10 -2.2,-12.9 -1.6,-1.6 -3.1,-4.5 -3.5,-6.5 -0.4,-2 -1.8,-4.4 -3.1,-5.4 -2.4,-1.6 -2.4,-1.6 1,-4.3 l 3.4,-2.7 0.2,-16.7 c 0,-9.1 -0.3,-18.1 -0.8,-20 -0.6,-1.8 -1.2,-4.8 -1.6,-6.5 -0.6,-2.4 -2,-3.7 -5.8,-5.3 -4.3,-1.9 -7.7,-2.2 -21.2,-2.2 -15.1,0 -16.4,0.1 -18.4,2.5 -1.2,1.3 -2.8,4 -3.6,6.2 -0.8,2.6 -1.9,3.7 -3.5,3.7 -1.6,0 -2,-0.6 -1.7,-1.7 0.7,-1.7 -7.1,-9.3 -13.5,-13.1 -2,-1.2 -3.7,-2.9 -3.7,-3.7 0,-0.9 -2.2,-3.5 -5,-5.8 -4.1,-3.4 -6.4,-4.4 -11.3,-4.9 -7.5,-0.9 -12.2,-4.8 -13.3,-11.1 -0.3,-2.4 -3.5,-8.2 -7.1,-13.5 -5.2,-7.5 -7.3,-9.6 -10.7,-10.8 -2.4,-0.8 -6.4,-3.3 -9.1,-5.5 -2.7,-2.1 -5.3,-3.9 -5.9,-3.9 -1.2,0 -7.6,-6.2 -11.2,-10.9 -6.4,-8.3 -10.9,-12.7 -14.5,-13.8 -2.1,-0.7 -4.3,-2.1 -4.8,-3.3 -0.6,-1 -2.5,-2.6 -4.3,-3.5 -12.1,-6.3 -19.3,-12.1 -22.4,-18.5 -5.7,-11.3 -11.4,-16 -23.2,-19 -1.8,-0.4 -5,-2.2 -7.3,-4 -13,-10.5 -16.9,-13.5 -18.3,-13.5 -0.8,0 -3.9,-1.7 -7.1,-3.8 -5.4,-3.6 -17.8,-11.6 -24.4,-15.7 -1.7,-1 -3.5,-1.7 -4,-1.3 C 0,177.2 0.48296402,82.228949 0.0933523,67.514129 0.30316254,42.266261 0.02719992,18.864645 0.12077657,0.25263264 c 0,0 164.15257343,-0.30085463 174.35257343,0.99914536 C 179.37335,1.951778 56.2,4.8 56.2,8.4 c 0,3.3 -0.4,3.8 -5,5.6 -3.9,1.5 -7.2,1.8 -14,1.2 -8.6,-0.6 -9.1,-0.4 -13.1,2.8 -2.5,2 -4.1,4.1 -3.9,5.3 0.2,1 0.6,5.7 0.8,10.4 0.7,15.5 8.6,28.3 18.7,30.1 2.7,0.6 10,0.7 16.3,0.3 11.7,-0.7 33.8,1.2 37.7,3.3 1.3,0.7 2.6,0.7 3.5,-0.1 0.8,-0.7 4.6,-1.6 8.3,-1.9 6.4,-0.7 7.3,-0.4 11.3,2.4 4.3,2.9 4.8,3 14.9,2.4 46.9,-2.8 84.1,-4.1 85.4,-3 0.8,0.7 7.8,1.5 15.7,1.7 8.2,0.2 14.9,1 15.6,1.7 3,3 13.6,0 20.5,-5.8 2,-1.7 3.9,-3 4.4,-3 0.4,0 2.6,-1.5 4.6,-3.4 2.1,-1.8 5.3,-3.7 7,-4 1.7,-0.4 4.1,-1.7 5.5,-2.7 1.7,-1.3 5.7,-2.1 13,-2.7 12.7,-0.9 21,0.7 21,3.9 0,1.2 -0.8,2.1 -1.9,2.2 -1.1,0 -4.8,0.1 -8.2,0.2 -4.8,0.2 -6.2,0.7 -6.5,2.1 -0.2,1.3 0.7,2.5 2.8,3.3 7.8,3.3 11.4,4.8 17.6,8 4.9,2.5 7.6,3.1 10.2,2.7 2.4,-0.4 5.7,0.3 11.1,2.6 l 7.7,3.3 21.4,-0.6 c 15.8,-0.3 22.1,-0.9 23.9,-2.1 1.3,-0.9 3.3,-1.6 4.3,-1.6 1,0 3.3,-1 4.9,-2.4 2.7,-2 4.1,-2.2 9.2,-1.7 7.8,0.9 9.6,0.9 22.3,-0.3 12.3,-1.1 14.5,-1.8 26.4,-7.4 6.7,-3.3 10.1,-4.3 14.8,-4.3 3.3,0 6.4,0.3 6.8,0.8 1.2,1.2 0.6,39.8 -0.7,41.4 -1.2,1.7 -2.7,11 -2.5,16.9 0,3.3 -0.3,4.1 -1.6,3.7 -4.7,-1.8 -9.5,9.4 -8,18.6 0.4,2.6 0.8,12.6 0.7,22.1 -0.1,21.2 1.8,29.9 6.5,31 1.6,0.3 5,1.3 7.7,2.1 2.7,0.9 5.5,1.3 6.4,0.9 1.2,-0.4 1.7,0.3 1.7,3.3 0,2.7 -1.3,5.7 -4.5,10 -6.8,9.4 -7.4,11.4 -8.1,27.9 -0.3,8.3 -1.2,16.7 -2,18.5 -0.8,2 -1.5,10.9 -1.7,21.9 -0.2,10.2 -0.4,19.7 -0.6,21.3 -0.2,1.6 0,7.4 0.6,13 l 0.9,10.1 -4.5,4.7 c -2.5,2.6 -5.5,4.7 -6.8,4.7 -1.5,0 -3.7,2 -6.2,5.5 -3,4.1 -5.3,5.9 -9.4,7.4 -2.9,1 -7.4,2.8 -10,4 -2.6,1.1 -6.7,2.1 -9.3,2.1 -6.2,0 -8.7,1.5 -9.6,5.6 -0.4,1.8 -1.2,3.6 -1.8,3.9 -0.6,0.4 -1,3.9 -1,7.8 0,3.9 -0.4,8.3 -1,9.8 -0.6,1.5 -2.2,6.4 -3.7,11 -1.3,4.6 -2.9,8.6 -3.4,8.7 -0.6,0.2 -0.9,1.3 -0.9,2.6 0,1.1 -0.4,2.1 -1.1,2.1 -0.6,0 -1.1,-0.4 -1.1,-1 0,-0.6 -1.6,-1.6 -3.5,-2.4 -2.9,-1.2 -4,-1.1 -7.5,0.4 -2.2,1.1 -5.6,3.3 -7.5,4.8 -1.8,1.6 -5.8,4.4 -9,6.4 -3.4,2 -7.1,5.8 -9.2,9.1 -2,3.1 -5.2,7.2 -6.8,9 -11.7,12.3 -11.7,12.3 -11.4,21.6 0.3,11.6 0.6,10.7 -4.1,15.3 -3.8,3.6 -4.7,3.9 -9.8,3.7 -4.6,-0.1 -7.4,0.6 -13.6,3.7 -4.3,2.1 -8.1,3.9 -8.4,4 -0.3,0.1 -2.4,-0.2 -4.5,-0.7 z"
       id="path2598"
       sodipodi:nodetypes="cccccscscccccsccsccsccccccscccccccsccccccsccsccccsccccccscsccccsccccccccccsccccscccccccccsccccscccscccsccssccsssccccccccccscc" />
    <path
       d="m 710.6,46.3 c -1.6,-0.4 -1.9,-1.2 -1.3,-3.6 0.7,-3.3 -2.8,-9 -11.2,-18.1 -4.6,-5 -8.4,-12.7 -8.4,-16.9 0,-2.6 -65.83658,-5.9171942 -63.43658,-6.81719424 C 630.96342,-1.0171942 730.7,0.1 776.8,0.1 h 41.8 l 0.7,2.7 c 1.1,4.6 -1.5,22.7 -3.9,27.4 -0.8,1.5 -0.9,2.5 -0.1,2.9 0.6,0.3 1.1,2.7 1.1,5.2 0,4.9 -2.1,5.9 -3.9,1.9 -1.5,-3.4 -9.4,-5.2 -14.6,-3.3 -2.9,1 -4.9,0.9 -10.7,-0.6 -8.9,-2.2 -37.1,-2.7 -39.6,-0.7 -1.1,1 -3.5,1.2 -7.2,0.8 -3.1,-0.4 -8.1,-0.1 -12,0.8 -6.1,1.5 -6.7,1.9 -7.8,5.5 -1,3.1 -1.8,3.8 -4.6,4 -1.8,0 -4.3,-0.1 -5.4,-0.4 z"
       id="path2600"
       sodipodi:nodetypes="cccscscccssccccccccc" />
    <path
       d="m 456.3,44.3 c -0.3,-0.2 -7.8,-0.8 -16.8,-1 -8.9,-0.2 -17.8,-1 -19.8,-1.8 -3.7,-1.3 -10.1,-1.1 -17.3,0.9 -4,1 -4.3,1 -4.3,-1.5 0,-1.3 0.9,-3.7 2,-5.2 1,-1.5 2.5,-3.7 3.1,-4.9 0.7,-1.2 3.1,-3.3 5.4,-4.6 2.4,-1.3 5.8,-5 8.1,-8.4 l 3.9,-6.1 -5.4,-0.3 c -4.4,-0.3 -5.6,0.1 -7.1,2.1 -2.5,3.1 -9.2,5.5 -16.5,5.5 -3.3,0 -8.1,0.7 -10.7,1.6 -12.1,4 -27.4,4.7 -36.2,1.6 -2.6,-0.9 -5,-0.7 -10.4,0.7 -10.3,2.6 -22.7,2.5 -26.4,-0.4 -1.6,-1.2 -3.7,-2.2 -4.8,-2.2 -1,0 -2.9,-0.9 -4.1,-1.9 -1.6,-1.6 -4.5,-2 -11.8,-2.2 -19.5,-0.6 -33.4,-0.2 -38.5,1 -4.1,1 -7.4,0.9 -16.3,-0.7 -6.2,-1 -12.6,-2.4 -14.5,-2.8 -3.4,-0.9 -16.3,-0.8 -49.3,0.2 -12.7,0.4 -18.3,0.2 -22.8,-1 C 139.9,11.2 43.691048,12.400792 46.519147,9.4171942 L 55.425868,0.02075026 C 132.20162,-2.6549385 279.28157,-0.22114373 344.86897,-0.25513875 360.26897,-1.7551387 513.2,0.4 517,2 c 1.5,0.7 1.9,2.1 1.9,7 0,6.1 -0.1,6.3 -6.6,12.8 -3.7,3.6 -8,6.8 -9.5,7.3 -3,0.7 -5.2,5.6 -5.2,12 0,3.7 -0.7,3.8 -3.3,0.6 -2.2,-2.7 -7.1,-3.1 -14.1,-1 -2.5,0.8 -8,1.8 -12.3,2.4 -4.3,0.6 -8.6,1.2 -9.6,1.7 -0.9,0.3 -1.9,0.3 -2.2,0 z"
       id="path2602"
       sodipodi:nodetypes="ccccscccccccsccccscccccccscccsccsccsccc" />
  </g>
  <g
     fill="#923f35"
     id="g2634">
    <path
       d="M 401.63775,823.46551 C 400.03449,819.53108 401.6,819.7 397.9,815.8 l -2.7,-2.9 -15.7,0.8 c -16.5,0.7 -36.2,1 -43.7,0.8 -2.5,-0.1 -9.9,0 -16.5,0.1 -9.9,0.2 -12.3,0.7 -14.2,2.4 -2,1.8 -3.4,2 -9.3,1.3 -3.8,-0.3 -7.6,-1.3 -8.4,-2.1 -2.4,-2.4 -4.1,-22.7 -2.5,-27.7 1.7,-5 3.3,-26 2,-28.1 -1,-2 -2.2,-16.1 -2.1,-24.6 0,-2.1 0,-6.4 -0.1,-9.5 -0.1,-3 -0.1,-7.4 -0.1,-9.5 0.1,-2.1 0.3,-10.7 0.6,-19 0.4,-17.9 0.7,-18.3 10.9,-16.6 5.9,1 7.1,0.9 9,-0.9 1.2,-1.1 2.2,-3.1 2.2,-4.6 v -2.6 l 15.6,0.4 c 11.9,0.3 16.3,0.8 18.4,2.1 1.8,1.2 6.7,2 15.5,2.6 9.1,0.4 14,1.2 16.9,2.7 2.4,1.2 5.7,2.1 7.5,2.1 2.7,0 3.4,0.6 4,3.3 0.3,1.8 1.5,3.9 2.4,4.7 0.9,0.7 1.6,2.1 1.6,3.1 0,1.1 1.5,2.4 3.7,2.9 3.3,1 3.6,1.6 4.1,6.4 0.3,3 1.2,5.9 2,6.7 0.8,0.8 1.3,4.5 1.3,8.9 0,5.3 0.4,7.8 1.7,8.9 0.9,0.8 1.7,2.7 1.7,4.4 0,1.6 0.8,3.9 1.7,5 1.1,1.5 1.7,4.9 1.7,10.1 0,10.3 1.6,13.5 7,13.9 3.3,0.2 4.3,1 5.4,3.6 1,2.4 2.7,3.6 6.7,4.9 3,1 6.3,1.8 7.2,1.8 1.3,0 1.8,1.1 1.8,4.5 0,2.5 -0.4,4.5 -1.1,4.5 -2.7,0 -0.8,2.1 3,3.5 2.8,0.9 11.4,1.2 26.5,1.1 18.8,-0.1 22.8,0.1 25.1,1.6 1.9,1.3 3.1,1.5 4.1,0.7 0.9,-0.8 9,-1.2 21.2,-1.1 15.9,0 19.8,0.2 19.8,1.5 0,1.7 -3.4,2.9 -8.1,2.9 -2.4,0 -3.1,0.6 -3.1,2.1 0,1.1 0.8,2.4 1.7,2.8 2.2,0.8 2.2,7.4 0.1,7.4 -0.9,0 -1.9,-0.4 -2.2,-1 -0.6,-0.8 -5.4,-0.9 -10.3,-0.2 -0.7,0 -3.4,1.9 -5.9,4.1 l -4.7,4.1 -9.3,-0.7 c -6.6,-0.6 -9.6,-0.3 -10.7,0.7 -0.8,0.8 -4.9,1.3 -10.5,1.5 -5,0.1 -12.2,0.8 -15.9,1.5 -3.7,0.8 -10.2,1.8 -14.6,2.1 -7.1,0.8 -15.5,3.7 -16.8,5.8 -0.2,0.4 -4.81359,2.34135 -7.43064,3.99995 -10.38175,-0.25195 -7.55478,0.62229 -14.43161,-1.53444 z"
       id="path2608"
       sodipodi:nodetypes="ccccccccsccccccccscccccsccsccsscscscccssscccccssscscccccccccccc" />
    <path
       d="M670.9 817.3 c-0.7 -0.8 -1.5 -3.4 -1.9 -5.7 -0.4 -2.4 -1.8 -5.3 -2.9 -6.4 -2.2 -2.2 -2.2 -2.2 0.2 -6.4 1.8 -3.1 2.8 -7.5 3.7 -16.8 0.7 -7 0.8 -13.6 0.3 -14.8 -1.6 -4.3 -0.9 -22.9 1 -25.8 1.3 -2.1 1.6 -4.6 0.9 -12.7 -0.6 -8.3 -0.4 -10.4 1.1 -12.8 1.6 -2.4 1.8 -5.5 1.7 -17.6 -0.1 -8.2 0.1 -18.2 0.6 -22.4 1 -8.7 0.2 -10.3 -5.7 -11.2 -5 -0.9 -9 0.7 -13.9 5.3 l-3.9 3.8 -16.3 0.6 c-9 0.4 -17.5 0.4 -18.8 0 -3.4 -0.8 -3.1 -4.4 0.3 -5.3 1.6 -0.4 3.6 -1.9 4.6 -3.5 1 -1.6 2.6 -2.8 3.5 -2.8 0.9 0 2.6 -1.1 3.8 -2.5 1.9 -2.2 2.1 -4.1 1.9 -13.2 -0.1 -5.8 0.1 -11.7 0.6 -13 0.4 -1.3 0.1 -4 -0.9 -6.4 -1.8 -4.3 -2.2 -14.9 -0.8 -17.3 2.4 -3.7 12.1 -4.8 16.6 -1.9 2.2 1.6 4.6 1.8 12.6 1.2 5.4 -0.4 10.5 -0.2 11.4 0.3 2.6 1.6 5.5 35 3.6 41.7 -1.8 6.7 -0.6 7.1 21.1 6.7 l18.8 -0.3 2.1 2.8 c2.1 2.6 2.5 2.7 4.6 1.1 1.9 -1.3 2.9 -1.3 4.7 -0.4 1.9 1 3 0.9 5 -0.4 3.9 -2.6 6.8 -2.2 9.5 1.2 3.7 4.7 9.3 6.4 20 6.2 6.8 -0.2 9.9 0.1 11.7 1.5 1.5 0.9 3.4 1.7 4.3 1.7 1 0 3 1.3 4.6 2.9 2.2 2.4 3.3 2.7 6.1 2 1.8 -0.4 10 -0.7 17.9 -0.6 l14.6 0.2 4.3 4.1 c5.6 5.4 6.6 8 6.7 17.9 0 7.1 -0.2 8.4 -2.4 9.9 -3.4 2.4 -5 9.2 -3.5 13.8 0.8 2 1 6.1 0.7 9.1 -0.6 4.5 -0.2 5.7 1.7 7.4 4.1 3.8 4.5 5.7 1.9 10.8 -2 4 -2.2 5.8 -1.7 13.1 1 11.9 -0.4 18.5 -5 23 -8.1 7.7 -9 9.5 -8.7 15.9 0.1 3.4 0.1 6.2 -0.2 6.4 -7.2 4.9 -10.7 6.7 -14.2 7.2 -3.8 0.6 -4.8 0.2 -6.1 -1.8 -0.8 -1.2 -2.6 -2.4 -3.9 -2.4 -1.5 0 -3.7 -1.2 -5 -2.8 -1.9 -2.1 -3.3 -2.7 -5.4 -2.2 -2.5 0.6 -3 0 -5 -4.7 -1.1 -3 -2 -6.4 -1.9 -7.7 0.2 -1.2 -0.7 -3.1 -1.9 -4.3 -2.1 -1.9 -2.4 -1.9 -3 -0.2 -0.3 1 -0.1 3.3 0.7 5 1.2 3 0.6 6.2 -1.7 8.9 -0.6 0.6 -8.3 -8.1 -8.4 -9.2 0 -0.6 0.8 -1.9 1.7 -2.9 1.6 -1.7 1.5 -2.2 -0.6 -4.8 -1.2 -1.6 -2.2 -3.8 -2.2 -5 0 -2.5 -1.9 -4.3 -3.1 -3.1 -0.3 0.4 -0.6 2.5 -0.4 4.6 0.2 2.1 -0.1 3.9 -0.7 3.9 -0.6 0 -1.3 2.1 -1.8 4.6 -0.8 5 -6.8 14.5 -9.2 14.5 -0.9 0 -2.5 -1.3 -3.5 -3 -2.6 -3.9 -7.2 -8.1 -9 -8.2 -1.3 0 -1.6 0.9 -1.9 8.4 -0.1 3.1 -0.3 3.4 -4.4 3 -2.6 -0.2 -5.5 0.3 -7.1 1.3 -1.5 1 -3.8 1.8 -5.2 1.8 -1.5 0.1 -3.8 0.8 -5.4 1.7 -1.6 0.9 -4.8 1.6 -7.3 1.7 -2.6 0 -5 0.4 -5.6 1 -1.6 1.3 -14.7 5.7 -17.3 5.7 -1.1 0 -2.6 -0.7 -3.1 -1.3z"
       id="path2610" />
    <path
       d="M405.4 681.9 c-0.7 -0.7 -4.4 -1.6 -8.4 -2 l-7.3 -0.9 -0.3 -12.6 c-0.3 -12.1 -0.2 -12.7 2 -12.7 2 0 2.2 0.7 2.2 8.3 0 5.4 0.4 8.7 1.3 9.2 2.7 1.7 27.4 0.7 33.9 -1.3 5.3 -1.7 7.5 -1.8 16 -0.8 7.6 1 10.7 0.9 13.2 -0.2 6.2 -2.5 15.3 -3 24.6 -1.2 6.3 1.2 9.4 1.5 11 0.6 2.5 -1.3 47.9 -1.8 53.4 -0.6 5 1.2 4.5 3.8 -1.5 6.4 -5.9 2.6 -12.3 2.9 -52.8 2.2 -23.2 -0.3 -27.5 -0.1 -30.5 1.5 -4 2.1 -19.8 2.6 -21.1 0.6 -1 -1.7 -8.2 -0.2 -11.9 2.5 -3.4 2.4 -10.9 2.9 -12.9 0.9 -0.9 -0.9 -1.5 -0.9 -1.9 0 -1 1.6 -7.6 1.7 -9.1 0.2z"
       id="path2614" />
    <path
       d="M797.9 625.5 c-5.9 -2 -8.4 -5.2 -8.4 -10.7 0 -2.7 0.8 -6.7 1.7 -9 0.9 -2.1 1.7 -5.9 1.7 -8.3 0 -3.6 0.4 -4.4 2.1 -4.4 1.2 0 2.4 0.6 2.6 1.2 0.6 1.8 10.4 0.3 12.6 -1.9 2.1 -2.1 8.1 -2 9 0.1 0.9 2.5 2.2 2 5 -1.8 l2.6 -3.4 -2.5 -0.7 c-1.9 -0.6 -2.4 -1.3 -2 -4.7 l0.3 -4 9.4 -0.3 c5.2 -0.2 10.2 0 11.2 0.4 1 0.4 4.1 0.7 7.2 0.6 4.8 -0.3 5.3 -0.1 5.4 2.4 0 1.3 0.3 1.9 0.7 1.2 0.2 -0.9 2.5 -1.5 4.9 -1.5 2.5 0 6.3 -0.9 8.6 -2.1 2.2 -1.1 7.6 -2.5 12 -2.9 7.1 -0.7 7.6 -0.7 6.3 1 -1.3 1.6 -1.3 2.7 -0.1 6.6 2 6.6 2.2 18.2 0.3 25.5 -0.9 3.4 -2.2 8.4 -2.9 11.2 l-1.3 5 -11.3 -0.1 c-8.9 0 -12 -0.4 -14.4 -2 -2.1 -1.3 -4 -1.7 -6.5 -1.1 -3.6 0.7 -17.9 1.6 -26 1.6 -2.4 0 -5 0.6 -5.9 1.2 -2 1.8 -17.7 2.2 -22.2 0.8z"
       id="path2616" />
    <path
       d="M473.3 620 c-9.4 -1.2 -11.2 -2.9 -11.3 -11 -0.3 -20.4 0.1 -31.5 1.1 -34.4 0.9 -2.1 0.9 -3.4 0.1 -3.6 -0.7 -0.2 -2.8 -1.5 -4.8 -2.9 -2.5 -1.7 -7 -2.9 -13.6 -3.8 -10.8 -1.3 -16 -3.8 -20 -9.3 -1.2 -1.8 -2.9 -3.3 -3.7 -3.3 -0.8 0 -2.4 -1 -3.4 -2.1 -1.7 -1.8 -1.8 -3.4 -1.2 -8.7 0.4 -3.6 1.5 -7.7 2.2 -9.3 3.8 -7.5 4.4 -18.4 2.2 -42.6 -2.5 -26.2 -3 -40.1 -1.8 -44.6 1.6 -6.1 1.6 -19.8 0 -22.8 -0.7 -1.2 -1.3 -6.2 -1.6 -10.9 -0.3 -8.7 -1.2 -12.6 -2.8 -12.6 -1 0 -0.1 -4.7 1 -5.6 0.4 -0.3 1.9 -4.4 3.4 -9 1.3 -4.6 3 -9.8 3.7 -11.6 0.7 -1.7 0.9 -5 0.6 -7.5 -0.6 -4.1 -0.3 -4.5 2.1 -4.5 2.6 0 2.7 0.3 2.7 7.7 l0 7.6 5.8 0.6 c3.5 0.3 8.1 0 11 -0.9 10.9 -3.3 20.2 -1.1 20.2 4.7 0 2.1 0.6 2.7 2.7 2.7 1.7 0 3.6 1.2 5 3.1 l2.2 3 0.1 -3.6 c0 -2.7 1.7 -5.6 7.1 -11.9 10.4 -12.4 9.2 -12.2 49.8 -12.4 30.7 -0.2 34.4 -0.4 35.7 -2.1 0.8 -1.1 2.9 -1.9 4.8 -1.9 3.1 0 3.5 0.3 3.4 3.4 -0.1 1.9 0.3 3.9 0.9 4.4 3 2.7 44 4.7 59.7 2.9 l7 -0.9 -1.7 4 c-0.9 2.2 -1.7 5.4 -1.7 7 0 2 -0.6 2.8 -2.1 2.8 -1.2 0 -2.4 -0.6 -2.6 -1.1 -0.8 -2.6 -13.9 -4.4 -31.6 -4.1 l-17.8 0.1 0.8 12.2 c0.7 10 0.4 12.6 -0.8 14.1 -0.9 1 -1.9 4 -2.2 6.8 -0.2 2.8 -1.3 8 -2.4 11.6 -1 3.6 -1.8 8 -1.8 9.8 0 4.8 -3 4.4 -4 -0.6 -0.3 -2.1 0 -9.1 0.8 -15.5 2.1 -16.8 1.9 -33.1 -0.3 -37.3 -2.6 -4.8 -13 -8.7 -20.2 -7.7 -3.5 0.6 -6.7 0.2 -10.4 -1 -4.6 -1.6 -8.3 -1.8 -24 -1.1 -21.3 0.9 -23.3 1.6 -32.6 10.8 l-5.7 5.6 0.3 14.8 c0.3 17.3 -0.9 54.6 -1.9 59.7 -1 4.4 2.4 8.3 7.1 8.3 7.6 0 36.2 -2.6 42.8 -3.9 4 -0.8 9.9 -1.2 13.1 -0.9 8.4 0.9 13.5 -0.3 16.8 -4.3 1.6 -1.8 3.4 -3.3 3.9 -3.3 0.4 0 0.9 2.2 0.9 5 0 2.8 0.7 6.8 1.6 9 1.1 2.5 1.2 3.9 0.4 4.1 -2.1 0.8 -3 11.2 -3 37.5 -0.1 24.3 0 25.9 2.1 28.3 1.2 1.3 2.2 3.7 2.2 5.4 0 2.6 -0.3 2.9 -3 2.4 -1.7 -0.3 -3.9 0 -5 0.7 -1.6 1 -2.4 0.9 -3.7 -0.9 -5.4 -6.8 -5.6 -7.6 -5.6 -18.1 0.1 -5.7 0.7 -11.6 1.3 -13 4.4 -9.3 4.4 -9.6 -0.7 -14.5 -4.8 -4.4 -7.3 -5.4 -8.5 -3.3 -0.3 0.7 -2.9 1.1 -5.7 1.1 -4.8 0 -4.9 -0.1 -4.9 -3.6 0 -2 0.4 -4.4 1 -5.3 1.9 -3 -2.1 -11.3 -5.5 -11.3 -0.7 0 -2 -0.8 -3 -1.7 -1.3 -1.3 -2.9 -1.6 -7 -1 -2.8 0.4 -5.2 0.8 -5.3 0.9 0 0 -1.1 3.4 -2.5 7.4 -2.4 7.2 -2.4 7.3 -0.1 8.9 1.5 1 2.1 2.8 2.1 5.6 0 4.5 -3.1 7.8 -9 9.6 -5.6 1.7 -6.1 3 -3.1 9.1 0.6 1.2 0.9 4 0.7 6.2 -0.3 3.5 -0.7 3.8 -4.5 4.1 -3.6 0.3 -4.3 0.8 -4.3 3 0 2.7 -1 3 -14.2 4.6 -7.7 0.9 -9.1 2.7 -10 12.9 -0.3 4.5 -1.1 9.8 -1.7 11.6 -0.8 2.5 -0.6 3.8 1.3 6.2 2.1 2.7 2.2 3.8 1.5 16.9 -0.4 7.7 -0.7 14.6 -0.7 15.1 0.1 0.7 0.4 4.5 0.9 8.6 0.9 9.2 -0.4 8.6 27.1 9.5 14.9 0.4 20.4 1 20.4 2 0 0.7 -1.9 1.9 -4.1 2.6 -5.3 1.7 -31.1 2.5 -40.6 1.2z"
       id="path2618" />
    <path
       d="M764.8 613.3 c-2.1 -0.6 -14.5 -1.8 -27.5 -2.7 -15.4 -1.1 -23.9 -2.1 -24.8 -3 -2.7 -2.8 -1.9 -53 0.9 -58.5 1 -1.9 1.9 -2 8.1 -1.2 3.7 0.4 9.4 1 12.4 1.1 3.8 0.1 8 1.5 12.9 3.9 6.7 3.4 7.6 3.6 11.9 2.5 3.1 -0.9 5.9 -0.9 8.4 -0.2 2.1 0.7 5.5 1.1 7.5 1.1 2.5 0 3.9 0.7 4.5 2 1.1 2.8 0.8 11.1 -0.8 18.2 -1.1 4.7 -1.1 7.6 -0.1 12.6 1 5.4 0.9 7 -0.6 9.8 -0.9 1.9 -1.7 5.4 -1.7 7.8 0 7.2 -2.8 8.9 -11.2 6.7z"
       id="path2620" />
    <path
       d="M0 537.5 c0.1 -59.7 0.3 -70.1 1.6 -68.4 0.9 1.1 1.9 4.4 2.4 7.3 1 7.8 1.7 9.2 3.8 9.2 1.6 0 2.2 -1.2 2.8 -5.2 0.3 -2.9 0.7 -6.8 0.7 -8.9 0 -6.1 3.7 -8.4 13.1 -8.4 4.4 0 10.1 -0.8 12.7 -1.7 8.7 -3.1 18.3 -1.7 22.3 3.3 1 1.1 3.4 1.8 6.5 1.8 4 0 5.8 0.7 9 3.4 2.6 2.4 4.9 3.4 7.5 3.4 2.8 0 4.3 0.8 5.6 2.8 1 1.6 3.5 3.5 5.5 4.4 2 0.8 5 3.1 6.7 5 2.6 3.1 3 4.7 3 10.8 0 10.2 -1.5 11.6 -13.6 12.4 l-9.6 0.8 -3.3 -4.1 c-4.3 -5.3 -9.1 -6.3 -13.7 -2.9 -2.6 1.9 -4.3 2.4 -7.7 1.8 -15.1 -2.2 -23.1 -2.8 -29.7 -2.2 -7.2 0.7 -7.6 0.8 -7.6 3.5 0 2.2 -0.4 2.7 -1.9 2 -1.1 -0.4 -3.6 -1 -5.5 -1.3 -3.1 -0.6 -3.5 -0.2 -4.7 3.9 -1.7 5.4 0 50.2 1.9 53.9 1.6 2.8 1.6 9.3 0.1 16.9 -0.7 3.3 -1.5 9.3 -1.8 13.2 -0.4 5.5 -1.2 8.1 -3.4 10.5 l-2.7 3.4 0 -70.5z"
       id="path2622" />
    <path
       d="M385.1 605.4 c-0.6 -0.9 -6.1 -1 -19.5 -0.4 l-18.8 0.8 -1.8 -2.8 c-2.5 -3.7 -9.8 -5.7 -19.4 -5.4 -7.6 0.2 -8.2 0.1 -8.2 -2 0 -1.7 0.7 -2.4 2.6 -2.4 3.5 0 5.7 -1.7 4.9 -3.8 -0.6 -1.5 0.1 -1.8 3.7 -1.8 2.4 0 4.7 -0.6 5.2 -1.2 0.6 -1 5 -1.1 16 -0.6 8.4 0.4 18.1 0.7 21.4 0.7 3.4 0 8.6 0.7 11.7 1.6 3.9 1.2 6.2 1.3 7.6 0.6 2.5 -1.3 5.4 -7.5 5.4 -11.4 0 -1.5 0.8 -3.6 1.7 -4.8 1.2 -1.6 1.6 -5.4 1.7 -14.7 0 -9.9 0.3 -12.7 1.5 -12.7 3.6 0 4.9 10.1 4.3 30.4 l-0.3 9.8 -4.6 4.5 c-2.6 2.5 -6.4 5.3 -8.4 6.4 -2.6 1.2 -3.5 2.2 -2.7 3.1 0.6 0.8 1.3 2.7 1.6 4.5 0.6 2.6 0.2 3 -2 3 -1.3 0 -2.9 -0.6 -3.4 -1.2z"
       id="path2624" />
    <path
       d="M103.8 515.1 c-0.3 -0.8 -1.3 -1.5 -2.4 -1.5 -2.6 0 -2 -2.9 0.9 -4.1 6.6 -3 8.5 -16 4.1 -27.2 -2.6 -6.4 -2.8 -11.8 -1 -17.9 0.9 -2.8 0.9 -5.7 0.2 -8.5 l-1 -4.4 -12 0.4 c-11.3 0.3 -12 0.2 -12 -1.9 0 -1.7 1.2 -2.5 5.4 -3.6 2.9 -0.8 5.8 -1.8 6.4 -2.2 0.7 -0.4 4 -1.3 7.5 -2.1 4.6 -1 6.6 -2 7.1 -3.6 1.8 -5.6 6.2 1.6 8.5 14.1 1.7 8.9 2.4 43.2 1 49.5 -2.1 10.1 -4.3 13.7 -8.5 14.1 -2.4 0.2 -3.9 -0.1 -4.3 -1z"
       id="path2626" />
    <path
       d="M544.9 104.6 c-0.1 -4.1 -5.7 -13.1 -8.4 -13.6 -5.7 -0.9 -7.2 -1.6 -9.3 -5.2 -2.8 -4.6 -3.3 -13 -0.7 -13 0.9 0 2.6 -0.4 3.7 -0.9 7.3 -3.6 8.6 -4.7 9 -7.4 0.2 -1.6 1.8 -4 3.6 -5.5 1.8 -1.6 3.4 -4.1 3.6 -5.9 0.3 -2.9 0.8 -3.3 5.2 -3.6 5.3 -0.3 8.1 1.1 8.1 4.4 0 1.1 2 3.7 4.5 5.6 6.6 5.4 5.9 6.6 -3.3 6.6 -8.7 0 -8.6 -0.1 -11.7 9 -1.9 5.5 -2 7.2 -0.8 16.9 1 8.1 1 11.4 0.1 13.2 -1.8 3.3 -3.5 2.9 -3.6 -0.7z"
       id="path2630" />
    <path
       d="M812.2 70 c-3.6 -1.6 -3.7 -1.7 -3.7 -8.7 0 -5.5 0.6 -7.7 2.4 -10.1 1.9 -2.4 2.2 -4.1 1.9 -9.1 -0.3 -5.6 -0.1 -6.2 2 -6.2 2 0 2.5 0.9 3.1 5.2 1 7.7 0.8 12.7 -0.6 15.4 -1.2 2.4 -1.2 2.4 0.8 0.6 1.1 -1 3.5 -2.4 5.3 -3 1.7 -0.7 3 -1.9 3 -2.7 0 -0.9 1 -2.5 2.2 -3.6 1.9 -1.7 3.6 -1.9 11.9 -1.3 9 0.6 9.8 0.4 10.3 -1.7 0.6 -2.1 1.1 -2.1 10.8 -1.5 7.2 0.6 11.1 1.5 13.2 2.9 1.6 1.2 4.3 2.1 5.8 2.1 3.3 0 15.3 4.6 15.3 5.8 0 1.9 -4.9 3.4 -8.9 2.6 -11.2 -2 -16.6 -1.9 -21.2 0.4 -2.9 1.5 -6.8 2.4 -10.5 2.4 -3.7 0 -8.5 1.1 -12.7 2.8 -3.7 1.6 -7.5 2.8 -8.5 2.8 -0.9 0 -2.7 0.8 -3.9 1.7 -1.1 0.9 -3.5 1.7 -5 1.7 -1.6 0 -3.8 0.8 -5 1.7 -2.6 1.9 -3.4 1.9 -8 -0.1z"
       id="path2632" />
  </g>
  <g
     fill="#b2444d"
     id="g2658">
    <path
       d="M798.8 607 c-1.7 -0.3 -2.8 -1.6 -3.3 -3.5 -0.3 -1.7 -1 -4.3 -1.6 -5.8 -0.6 -1.6 -1.2 -5.8 -1.6 -9.5 -0.7 -6.2 -0.4 -7.2 2.7 -12.1 1.8 -2.9 3.7 -6.6 4 -8.4 0.4 -1.7 1.3 -3.7 2 -4.6 0.7 -0.8 2.2 -3.6 3.5 -6.2 3.1 -6.3 6.1 -7.6 16.3 -7 14.1 0.9 21.3 2.5 24.6 5.5 3.9 3.7 7.2 4.3 15.9 2.9 5.8 -1 8.9 -0.9 14.6 0.3 4 0.9 8.9 1.5 10.9 1.1 l3.6 -0.4 0 7.3 c0 9.4 -2.7 13.2 -9.8 13.7 -2.5 0.2 -6.3 1.2 -8.3 2.4 -2.1 1 -5.7 1.8 -8.1 1.8 -3.5 -0.2 -4.3 0.1 -4 1.8 0.3 3.7 -0.1 5.8 -1.2 5.8 -1.8 0 -6.6 -5.8 -6.7 -8 0 -1.5 -1 -1.7 -5.5 -1.2 -3.4 0.2 -5.7 0 -6.2 -0.8 -1 -1.6 -13.8 -1.7 -14.7 -0.1 -0.3 0.7 0 1.1 0.9 1.1 0.9 0 2.5 1 3.6 2.2 2.2 2.6 1.7 3.8 -5.5 11.8 l-4 4.5 -3.1 -3.5 c-2.5 -2.7 -3.5 -3.1 -4.5 -2 -0.7 0.8 -3.6 1.8 -6.4 2.1 -5.5 0.9 -6.3 2.5 -2.8 5.6 1.8 1.6 1.9 2.2 0.9 3 -1.6 0.9 -2 0.9 -6.2 0.1z"
       id="path2636" />
    <path
       d="M325.2 594.3 c0.9 -0.6 3.9 -1.1 6.7 -1.1 3.7 0 4.6 0.3 3.4 1.1 -0.9 0.6 -3.9 1.1 -6.7 1.1 -3.7 0 -4.6 -0.3 -3.4 -1.1z"
       id="path2638" />
    <path
       d="M381.3 591.9 c-1.6 -0.6 -7.6 -1.2 -13.5 -1.5 -5.8 -0.2 -14.9 -0.7 -20 -1.1 -5.3 -0.3 -10 -0.2 -10.7 0.3 -0.8 0.6 -3.3 1.3 -5.5 1.8 -3.8 0.7 -4.5 0.3 -7.8 -3.4 -7.7 -8.5 -8.6 -9.4 -9.9 -9.4 -1.9 0 -1.2 -2.7 1.1 -4.8 2.6 -2.1 2.6 -1.8 2.5 -37.1 0 -15.1 -0.4 -23.8 -1.2 -24.6 -0.7 -0.7 -1.2 -2.6 -1.2 -4.1 0 -2.6 0.4 -2.9 4.8 -3.1 12.8 -0.9 21.5 0.2 28.8 3.7 5.2 2.6 6.8 2.9 11.2 2.1 6.4 -1 12.9 -0.9 17.9 0.6 2.1 0.6 7.8 1.9 12.7 3 12.9 2.8 12.6 1.9 12.2 32.9 -0.2 19.3 -0.7 26.1 -1.9 28.7 -0.9 1.9 -1.9 5.3 -2.2 7.7 -1.3 8.3 -8.9 11.9 -17.4 8.3z"
       id="path2640" />
    <path
       d="M623.9 549.6 c-0.2 -0.3 -6.6 -0.9 -14.2 -1.3 -7.5 -0.4 -18.2 -1.6 -23.8 -2.5 -13.1 -2.1 -23.4 -1.8 -23.9 0.7 -0.8 3.7 -3.6 2.1 -3.6 -1.9 0 -3.9 0 -3.9 -6.4 -4.6 -3.6 -0.4 -8.3 -1.8 -10.4 -2.9 -4.9 -2.6 -11.4 -3.4 -29.2 -3.8 -16.8 -0.3 -25.3 -1.5 -27 -3.5 -1 -1.2 -0.7 -1.6 1.8 -1.6 2.6 0 2.8 -0.2 1.7 -1.7 -2 -2.5 -0.3 -3.9 4.5 -3.9 5 0 6.8 -1.9 3.9 -4 -1.1 -0.8 -1.7 -2.2 -1.3 -3.1 0.4 -1 0.2 -2 -0.3 -2.4 -1.8 -1.1 -1.2 -5.7 0.9 -7.6 1 -0.9 3.1 -2 4.7 -2.5 1.6 -0.3 4.4 -1.9 6.2 -3.5 l3.4 -2.7 -2.9 -2.5 c-4.1 -3.6 -4.8 -6.2 -2.2 -9.4 1.1 -1.5 2.7 -5.2 3.5 -8.2 1.2 -5.4 1.3 -5.5 6.4 -6.2 8.2 -1.1 12.3 -0.8 14.2 1 0.9 0.9 2.2 1.7 2.9 1.7 2.4 0 4.7 3.4 6.2 9.1 1.3 5 1.3 6.1 -0.2 8.4 -2.2 3.5 -0.2 3.6 4.3 0.2 3.3 -2.5 3.4 -2.5 7 -0.3 5.3 3 12 10.3 12 13 0 1.2 -0.8 3.7 -1.7 5.6 -1 1.8 -1.5 3.7 -1.2 4.3 0.3 0.6 -0.1 1.6 -1 2.4 -1 0.9 -1.5 2.4 -1 4 0.4 1.5 0.1 3.5 -0.7 4.4 -3.3 3.9 3.4 18.4 8.4 18.4 1.2 0 1.6 -0.3 0.9 -0.7 -1 -0.3 -1.5 -2.6 -1.3 -6.3 0.1 -3.3 0.4 -4.7 0.7 -3.5 1.2 6.4 5.7 7.1 34.3 5.5 12.7 -0.8 13.3 -0.7 18.7 2.1 6.4 3.4 14.9 3.9 18.7 1.2 1.5 -1 3.3 -4.1 4.1 -7.2 0.9 -2.9 2.6 -7.4 3.9 -10 2.2 -4.4 2.4 -5.9 1.8 -21.5 -0.6 -17.4 -1.3 -20.9 -5.9 -25 -1.7 -1.6 -3.3 -1.9 -5.8 -1.3 -3.7 0.8 -6.3 -0.3 -12 -5.7 -3 -2.8 -3.5 -2.9 -11.4 -2.1 -4.6 0.4 -10.2 1.5 -12.6 2.2 -2.9 1 -5.4 1.2 -8.4 0.4 -7.3 -1.6 -20.2 -1.2 -22.2 0.7 -0.9 0.9 -1.9 1.7 -2.1 1.7 -1.3 0 -3 -7.5 -3 -13 0 -5.5 0.3 -6.2 3.3 -7.6 1.7 -0.9 4.7 -3.5 6.7 -5.7 3.4 -3.8 3.5 -4.4 3.5 -14 0 -5.8 0.8 -12.7 1.8 -16.5 1 -3.6 2.1 -8.7 2.4 -11.6 0.3 -2.8 1.2 -5.8 2 -6.7 1.1 -1.2 1.2 -4.6 0.7 -13.5 -0.4 -6.5 -0.7 -12.1 -0.4 -12.6 0.8 -1.6 41.6 -0.9 48.8 0.8 3.7 0.8 7 1.8 7.2 2 0.3 0.3 1.5 4.5 2.6 9.3 2 9 2.5 26.8 0.7 33.2 -0.6 2.2 -0.1 3.8 1.9 6.5 2.4 3.3 2.6 4.5 2.2 14.4 -0.1 6.1 -0.6 11.7 -0.9 12.7 -0.7 2.4 9.6 10 13.5 10 1.6 0 3.1 0.7 3.7 1.5 1.7 2.6 5 15.9 5.6 22 0.3 3.7 1.6 7.7 3.1 10.1 2 3.3 2.7 6.2 3.1 15.3 0.4 7.4 1.3 12.9 2.8 16.3 1.2 2.8 2.5 7 2.8 9.3 0.6 3.5 0.3 4.1 -1.3 4.1 -1 0 -3.4 1.6 -5.2 3.4 -1.9 2 -4.4 3.4 -6.1 3.4 -1.6 0 -4.9 1 -7.5 2.1 -3.7 1.7 -7.2 2 -19.8 2 -8.5 -0.1 -15.7 -0.3 -16 -0.7z"
       id="path2642" />
    <path
       d="M83.7 512.8 c-0.2 -0.2 -7.8 -0.8 -17 -1 -9.1 -0.3 -17.4 -1 -18.3 -1.5 -1 -0.4 -5 -0.9 -9 -1.1 -4 -0.1 -8.2 -0.8 -9.3 -1.3 -1.5 -0.8 -3.4 -0.8 -5.8 0.1 -6.8 2.2 -13.1 -2.4 -12.1 -9 0.4 -3.3 0.6 -3.4 2.6 -1.6 1.6 1.5 3 1.7 6.3 1 5.4 -1.1 7.5 -1.1 20.3 -0.2 5.7 0.4 11.4 1.3 12.7 1.9 2.4 1.3 3.6 0.9 7.2 -2.4 2 -1.8 3.1 -1.9 9 -1 5.5 0.9 7.1 1.7 9.8 5 3.3 3.8 3.5 3.9 9.6 3.3 7.4 -0.8 10.3 -3.3 10.3 -8.9 0 -4.6 -4.5 -10.3 -9.8 -12.4 -2 -0.9 -4.5 -2.8 -5.5 -4.4 -1.3 -2 -2.8 -2.8 -5.6 -2.8 -2.6 0 -4.9 -1 -7.6 -3.5 -3 -2.6 -4.4 -3.1 -5.9 -2.4 -2.1 1.1 -5.3 -0.1 -12.8 -5.2 -4.3 -2.8 -8.5 -2.8 -14.7 0.2 -2.6 1.3 -5.4 1.6 -10.9 1.1 -7.2 -0.7 -7.5 -0.6 -10.7 2.8 -4.1 4.3 -5.2 4.4 -5.2 0.2 0 -1.8 -0.8 -5.7 -1.8 -8.9 l-1.9 -5.7 3.5 -7.3 c3.9 -8.3 4.6 -8.6 14.4 -5.8 5.9 1.7 16.9 2.9 31.5 3.6 5.2 0.2 10.2 0.8 11.2 1.3 1.1 0.6 10.4 0.9 20.7 0.7 10.3 -0.2 19 0 19.3 0.4 0.3 0.6 1 4 1.7 7.8 0.9 5.5 0.8 7.7 -0.7 11.3 -1.7 4.3 -1.6 4.9 0.6 11 4.6 12.8 4.3 24.8 -0.9 31.6 -1.9 2.6 -2.8 2.8 -13.3 2.9 -6.2 0.1 -11.4 0 -11.8 -0.2z"
       id="path2646" />
    <path
       d="M842.9 498.9 c-6.3 -3.6 -23.5 -4.5 -33.1 -1.8 -4.7 1.2 -6.8 1.3 -9.4 0.3 -2.7 -0.9 -3.6 -0.9 -3.9 0.2 -0.3 0.7 -1.7 1.3 -3.1 1.3 -4.1 0 -10.1 -10 -11.8 -19.8 -1.2 -6.5 -1.2 -9.3 0 -15.1 0.8 -3.9 1.9 -7.6 2.4 -8.3 3.4 -4.4 4.7 -11.9 5 -29 0.3 -16.3 2.1 -31.5 4.7 -40.3 1.5 -5.3 2.8 -5.4 33.6 -5.2 14.4 0.1 17.4 -0.2 19 -1.7 3.7 -3.7 21.8 0.9 27.5 7 1.3 1.6 5.7 4.3 9.5 6.1 3.8 1.8 7.4 4.1 8 5.3 0.6 1 1.1 7.4 1.2 14.1 0 7.1 0.6 12.8 1.3 13.7 0.9 1 0.9 3 0.1 6.8 -0.7 2.9 -0.9 5.7 -0.6 6.3 0.6 0.9 1.8 37.7 1.6 47.3 0 2.5 -1 5.7 -2.2 7.3 -2.1 2.9 -3.4 3.1 -19.7 3.8 -4.3 0.1 -9.1 0.6 -10.7 0.9 -5 1.3 -17.6 1.8 -19.4 0.8z"
       id="path2648" />
    <path
       d="M246.1 402.6 c-12.8 -0.7 -18.5 -2.5 -18.5 -5.5 0 -1 -0.8 -3 -1.8 -4.4 -1.7 -2.5 -3 -15.5 -3.1 -32.7 -0.1 -6.8 3.6 -16 7 -17.4 1 -0.4 10.4 -0.7 20.7 -0.6 15.7 0.1 19.6 0.4 23.8 2.2 3.7 1.6 5.2 2.9 5.7 5.3 0.3 1.7 1.3 5.4 2.1 8.2 0.8 2.8 1.1 6.1 0.9 7.3 -0.2 1.2 -0.4 9.4 -0.7 18.2 -0.2 12.9 -0.6 16.3 -2 17.7 -2.1 2.1 -14.9 2.8 -34.1 1.7z m21.4 -8.4 l3.5 -0.8 0.7 -11.3 c0.3 -6.3 1 -12.7 1.7 -14.2 0.6 -1.5 0.7 -4.3 0.2 -6.2 -0.6 -1.8 -1.2 -4.7 -1.6 -6.4 -0.9 -4.1 -5.3 -5.3 -22 -5.5 l-14 -0.1 -3.7 4.3 c-3.8 4.4 -3.8 4.4 -3.1 13.3 1.6 21.5 2.7 25.3 8 27.6 2.5 1 25 0.6 30.4 -0.7z"
       id="path2650" />
    <path
       d="M472.8 391.9 c-4.7 -4.9 -6.6 -6.2 -9.4 -6.2 -3.9 0 -4.1 -0.2 -2.5 -3.4 0.9 -1.8 0.7 -2.5 -1.7 -4 -2.8 -1.8 -3.4 -1.8 -11 0.1 -6.4 1.6 -9.6 1.7 -15.9 1 l-7.8 -1 0.3 -7 c0.3 -5 -0.1 -7.6 -1.6 -9.9 -1.8 -2.8 -1.8 -3 0.4 -5.4 1.2 -1.3 2.7 -3.8 3 -5.5 1.1 -4.3 5.5 -7 10.4 -6.1 2.7 0.4 5.5 -0.1 8.6 -1.5 2.5 -1.2 7 -3 9.9 -4 4 -1.5 6.4 -3.3 9.1 -7.1 2.4 -3.1 5.2 -5.5 7.4 -6.3 2 -0.7 5.2 -3 7 -5.3 l3.3 -3.9 -1.3 -10.9 c-0.9 -7.4 -1 -11.7 -0.2 -13.5 0.6 -1.3 0.9 -9.6 0.8 -18.7 -0.2 -12.6 0.1 -17.6 1.5 -22.1 3.7 -11.8 4.5 -7.7 4.6 23 0.1 15.8 0.6 32.2 0.9 36.3 0.6 6.3 0.3 8.3 -1.8 12.6 -2 4.3 -2.2 6.2 -1.7 11.3 0.6 3.9 0.3 8.1 -0.6 11.2 -2.7 9.8 1 15.1 10.7 15.1 7.5 0 8.3 2.2 2 5 -2.6 1.2 -7.1 5.3 -11.3 10.3 l-7.1 8.4 0.8 6.6 c0.4 3.6 0.4 6.6 0 6.6 -0.4 0 -3.4 -2.8 -6.7 -6.2z"
       id="path2652" />
    <path
       d="m 149.7,9.6 c 4.8,1.3 6.8,1.6 8.7,0.6 1.7,-0.9 5.3,-1 11.9,-0.3 5.3,0.6 10.3,0.6 11.4,0.1 2.5,-1.2 35.2,-1.1 39.6,0.1 7.6,2.2 22.3,4.3 24.7,3.4 1.5,-0.6 8.7,-1.2 16.4,-1.7 7.6,-0.3 14,-0.8 14.2,-1.1 0.2,-0.2 2.1,0.3 4.3,1.2 2.8,1.1 5.6,1.3 9.8,0.8 7.2,-1 8.5,-0.8 11.6,2 1.2,1.1 3.1,2.1 4.3,2.1 1,0 3.3,1 4.9,2.2 3.4,2.6 10,2.6 21.3,0 6.1,-1.3 11.2,-1.1 20.4,0.9 5.7,1.3 16.1,0 26.2,-3.3 4.1,-1.3 8.1,-1.9 10.3,-1.5 4.8,0.9 11.4,-1.5 15.3,-5.4 2.9,-3 3.3,-3.1 11.2,-2.5 10,0.9 12.4,2.6 9.2,6.3 -1.2,1.5 -3.9,5 -5.8,8.1 -2,3 -5.5,6.6 -7.8,8 -2.2,1.2 -4.7,3.6 -5.5,5.2 -1.7,3.6 -4.4,6.2 -15.3,14.8 -13.7,10.9 -15.1,11.8 -21.8,13.1 -7.5,1.6 -14.4,0.7 -22.7,-3 -4.1,-1.8 -7.4,-2.5 -9.4,-2.1 -1.9,0.4 -7.5,-0.7 -14.2,-2.6 -9.8,-2.9 -12,-3.3 -19.4,-2.5 -5.2,0.4 -9.3,1.5 -10.5,2.6 -1.1,0.9 -3.4,2 -5,2.5 -1.7,0.3 -4.8,2.2 -7,4 -2,1.9 -4.3,3.4 -4.9,3.4 -0.6,0 -1.7,0.8 -2.5,1.8 -3,3.5 -11.3,7.3 -18.5,8.4 -6.5,1.1 -7.7,1 -9.6,-0.8 -1.8,-1.6 -4.5,-1.9 -16,-2 -9.5,-0.1 -14.4,-0.6 -15.6,-1.6 -1.1,-1 -3.5,-1.2 -7.2,-0.8 -5.9,0.8 -15.7,1.2 -41.3,2.1 -9.2,0.2 -23.8,0.9 -32.3,1.2 l -15.5,0.8 -4.3,-2.9 c -4.5,-3.1 -7.5,-3.3 -13.2,-0.4 -1.2,0.7 -4,0.9 -6.2,0.6 C 75.7,68.3 68.6,67.6 57.7,68 39.2,68.6 33,67.7 28.3,63.5 21.7,57.7 15,41.3 16.9,35.9 c 0.6,-1.5 0.6,-4.4 0,-6.7 -2.6,-10.4 -2.8,-9.6 3.6,-14.5 l 5.8,-4.6 8.1,1.2 c 7.1,1.1 8.6,1 13.5,-0.8 L 53.3,8.4 M 512.34432,0.63102775 C 686.94432,0.93102775 636.8,0.9 638.6,1 c 43.12083,1.6399934 42.10692,3.513019 54.3,6.7 l 2.5,4.8 c 1.3,2.7 5.2,7.8 8.4,11.6 3.3,3.7 7.3,9.3 9,12.6 2.7,5 2.8,5.9 1.5,7.6 -1.3,1.6 -2.9,1.8 -9,1.5 -5.2,-0.4 -8.3,-0.1 -10.7,1.1 -4.5,2.2 -59.1,2.7 -63,0.4 -3.9,-2.1 -13.8,0.9 -20.3,6.4 l -5.3,4.4 -10.7,-1.3 c -7.7,-1 -12.7,-2.2 -18.1,-4.9 -4,-2 -8.9,-3.6 -10.8,-3.6 -3.6,0 -7.1,2.9 -7.1,5.9 0,2.4 -2.6,2.5 -4.5,0.2 -0.8,-0.9 -2.1,-1.7 -3,-1.7 -2.2,0 -3.3,3.4 -1.3,4.7 1.2,0.9 1.2,1.2 0.1,1.7 -3.4,1.3 -8,6.3 -8.3,8.9 -0.3,2.7 -1.7,3.8 -9,7.4 -1.1,0.4 -2.8,0.9 -3.7,0.9 -2.2,0 -2.1,1.8 0.6,6.2 2.5,4 4.7,5.4 7.3,4.4 4,-1.6 10.9,9.6 10.5,17.4 -0.3,5.6 1.5,13.1 3.7,16 1.5,1.9 11,2.7 26.7,2.1 5.3,-0.2 6.5,0.1 8.5,2.5 2,2.5 2.5,4.7 3.1,18.8 0.4,9.3 0.3,17.7 -0.3,19.7 -0.7,2.4 -0.6,5.3 0.3,9 l 1.3,5.4 10.1,0.1 c 5.5,0.1 13,1 16.7,2 3.6,1 7.4,1.8 8.4,1.8 0.9,0 4.4,1.8 7.7,3.9 3.3,2.1 7.1,3.9 8.5,3.9 3.1,0 8,3.7 10.2,8 1.2,2.6 1.6,6.8 1.5,18.2 -0.1,8.2 0.1,20.9 0.4,28.3 0.2,7.4 0.1,14.5 -0.3,15.7 -0.4,1.2 -0.3,7.3 0.2,13.5 0.7,6.2 1,12.4 1,14 -0.1,1.6 -0.3,6.4 -0.6,10.9 -0.4,9.9 -3.1,15.3 -7.8,15.8 -3.3,0.4 -3.3,0.4 -2.6,-4.9 l 0.4,-0.2 c 0.4,-4.1 0,-6.5 -1.7,-9.9 -1.3,-2.7 -2.5,-7.6 -2.8,-12.9 -0.3,-4.7 -1.2,-9.5 -1.9,-10.8 -0.8,-1.3 -1.3,-10.7 -1.6,-24.1 -0.1,-12 -0.3,-24.9 -0.3,-28.6 -0.1,-4.4 0.4,-8.1 1.7,-10.3 3.1,-6.3 2.6,-7.1 -5,-7.1 -5.2,0 -7.5,-0.6 -9.6,-2.2 -1.6,-1.2 -4.5,-2.2 -6.4,-2.2 -1.9,0 -4.7,-0.8 -6.2,-1.8 -2.2,-1.7 -15.6,-4.1 -20.3,-3.8 -0.9,0 -4.8,0.3 -8.7,0.7 -5.4,0.6 -7.5,0.2 -9,-1 -1,-0.9 -4.3,-2 -7.2,-2.4 -16.6,-2 -15.1,-1.6 -15.9,-5.7 -0.6,-2.9 -1.3,-3.9 -2.9,-3.9 -2.6,0 -3,-2 -0.7,-2.9 3.7,-1.5 4.4,-6.6 2.9,-21.1 -1,-10.8 -1,-15.4 0,-20.3 1.1,-5.4 1,-6.7 -0.4,-9 -2.7,-4 -4.7,-4.7 -16.3,-5.6 -7.8,-0.7 -11.8,-1.6 -15.6,-3.6 -4.4,-2.4 -6.2,-2.7 -11,-2 -3.1,0.3 -9.1,0.9 -13.1,1.1 -9,0.6 -10.4,-0.6 -9.3,-7.6 0.3,-2.6 1,-6.7 1.3,-9.2 0.3,-2.5 1,-5.5 1.6,-6.7 1.6,-3.6 2.2,-22.8 1,-28.9 -1.3,-7.1 -0.6,-9.8 2.9,-9.8 3.1,0 7.3,-4.8 7.3,-8.3 -0.1,-1.2 -0.8,-3.6 -1.7,-5.2 -3.4,-5.8 -1.2,-17.3 3.5,-18.4 4.4,-1.1 16.1,-13.2 16.1,-16.7 0,-1.6 -0.8,-3.1 -1.9,-3.5"
       id="path2654"
       sodipodi:nodetypes="cccccccccccsccccccccccccccccccccsccccccccccccccccccccccccccccccccccssscsccccsccccccccccccssscccsccccccccccccscsccccccscccccccccsccscccsc" />
    <path
       d="M966.3 131.5 c-0.4 -0.3 -0.8 -1.6 -0.8 -2.7 0 -1 -1.1 -2.1 -2.6 -2.6 -3.8 -0.9 -5 -7.7 -4.1 -22.5 0.4 -8.7 0.2 -13.8 -0.8 -17.3 -2 -6.6 -1.8 -13 0.3 -17.6 1.7 -3.5 1.7 -4 0 -6.6 -2 -3.1 -5.9 -5 -10.2 -5 -1.5 0 -4.1 -1.2 -5.9 -2.8 -3 -2.6 -3.8 -2.7 -8.7 -1.8 -3 0.6 -6.8 0.8 -8.6 0.4 -1.8 -0.3 -3.8 0 -4.8 0.9 -1.3 1.1 -5.9 1.6 -15.9 1.7 -11.6 0.1 -14.8 -0.2 -18.7 -1.9 -2.7 -1.2 -5.6 -1.8 -6.6 -1.5 -1.1 0.4 -3.7 -0.6 -6.3 -2.2 -3.6 -2.4 -4.8 -2.7 -6.5 -1.7 -1.6 1 -2.8 0.9 -5.6 -0.6 -4.3 -2.1 -5.8 -2.2 -5.8 -0.3 0 0.8 -0.7 2.4 -1.3 3.4 -1.3 1.7 -1.9 1.7 -7 0.2 -10 -3 -14.6 -1.9 -16.7 4.1 -0.4 1.1 -1.5 2 -2.2 2 -0.9 0 -2.8 0.9 -4.3 2 -1.5 1.2 -4.6 2.5 -6.8 2.8 -3.9 0.6 -4.3 0.4 -4.3 -2.1 0 -1.6 0.8 -4.4 1.8 -6.2 2.1 -4.1 1.2 -12.2 -2.1 -17.6 -2.1 -3.7 -2.1 -3.9 -0.2 -7.8 1 -2.2 2.4 -6.6 2.9 -9.8 0.7 -3 1.5 -7 1.8 -8.7 0.8 -3.8 -2 -8.3 -5.5 -9 -1.5 -0.2 33.9 -0.6 78.5 -0.7 l81 -0.1 0 66.2 c0 54.4 -0.2 66.2 -1.5 66.2 -0.9 0 -1.9 -0.3 -2.2 -0.8z"
       id="path2656" />
  </g>
  <g
     fill="#a8733a"
     id="g2664">
    <path
       d="M537.8 791.4 c-3.7 -1.8 -5.9 -2 -12.3 -1.5 -9.8 0.8 -9.3 0.8 -20 0.2 -6.6 -0.4 -8.9 -0.2 -9.9 1 -1.9 2.2 -5.2 2.1 -9.4 -0.4 -2.8 -1.6 -5.3 -1.9 -12.4 -1.7 -4.9 0.2 -9.4 0.3 -10.1 0.4 -5.7 0.7 -27.9 -1.2 -31.4 -2.7 -2.4 -1 -5.4 -1.8 -6.7 -1.8 -2 0 -2.7 -0.8 -3 -3.4 -0.4 -3 -0.2 -3.4 2.6 -3.4 3.7 0 6.6 -1 6.6 -2.4 0 -0.6 -0.8 -1 -1.8 -1 -0.9 0 -4.1 -0.8 -7.2 -1.8 -4.1 -1.3 -5.7 -2.6 -6.7 -5 -1.5 -3.5 -2.2 -3.9 -4 -2.1 -1.6 1.6 -5.5 -1.5 -7.7 -5.8 -1.3 -2.7 -1.6 -5.3 -1 -10.1 0.6 -5 0.3 -7.1 -1.1 -9.2 -1 -1.6 -1.8 -4 -1.8 -5.5 0 -1.5 -1 -3.6 -2.2 -4.7 -1.9 -1.7 -2.1 -2.9 -1.6 -8 0.6 -4.7 0.2 -6.8 -1.7 -10.9 -1.5 -2.9 -2.1 -5.8 -1.7 -7 0.6 -1.3 0.1 -2.6 -1.2 -3.5 -2.9 -2.1 -3.6 -2 -3.5 1 0.1 1.9 -0.6 2.6 -2.9 2.8 -3.4 0.4 -4.3 -1.3 -1.5 -2.5 2.1 -0.8 2.2 -6.7 0.1 -8.4 -0.9 -0.8 -2 -2.9 -2.4 -4.7 -0.4 -1.8 -1.5 -3.3 -2.4 -3.3 -2.9 0 -1.7 -3.4 1.6 -3.9 5 -1.1 6.4 -2.2 7.4 -6.5 1.2 -4.6 3.5 -5.5 4.4 -1.8 0.6 2.1 1.2 2.4 4.6 1.8 2.2 -0.3 4.3 -0.1 4.6 0.4 0.4 0.6 1.9 1 3.4 1 1.5 0 2.9 0.4 3.4 1 0.3 0.7 2 0.3 3.9 -0.8 2.7 -1.6 3.7 -1.7 5.3 -0.4 3.8 2.6 4.9 2.7 7.2 0.7 3 -2.7 15.3 -5.2 18.2 -3.6 3.7 1.9 12.2 1.8 17.2 -0.4 3.9 -1.7 10.7 -2.5 17.3 -1.9 0.9 0 10.2 0.2 20.7 0.4 10.4 0.2 21.4 0.7 24.3 1 3.3 0.4 6.3 0.2 7.7 -0.6 1.2 -0.7 3.5 -0.9 4.9 -0.6 2.1 0.6 2.7 1.7 3.4 7.1 0.4 3.6 1.1 7.1 1.6 7.6 1.8 2.5 5.6 13.7 6.2 18.5 0.3 2.8 1.1 7.3 1.7 10.1 1.6 6.8 1.5 16.5 -0.1 21.9 -0.7 2.5 -1.3 12.9 -1.5 23.5 -0.1 17.4 -1.3 27.5 -3.6 31.2 -0.7 1.1 -1.9 1 -5.3 -0.7z"
       id="path2660" />
    <path
       d="M252.5 579.2 c-1 -0.6 -6.8 -1.1 -12.8 -1.1 -13.1 0 -14.6 -0.9 -14.4 -9.1 0.2 -20.7 0 -32.1 -0.9 -33.8 -0.6 -1.1 -0.8 -7.5 -0.3 -14.2 l0.7 -12.1 3.9 -3.4 c7.2 -6.1 8.7 -6.5 19.7 -5.4 11.8 1.1 27.6 1.3 36.7 0.4 4.8 -0.4 7.2 -0.2 9.2 1.1 1.7 1.1 5.2 1.8 9.3 1.8 17 0 17.4 0.4 17.8 29.7 0.2 12.3 0.4 23.7 0.4 25.2 0.2 5.9 -2 18.2 -3.5 19.1 -3.1 2 -62.8 3.5 -65.9 1.7z"
       id="path2662" />
  </g>
  <g
     fill="#a08073"
     id="g2678">
    <path
       d="M663 802.4 c-3.7 -3.1 -7.5 -3.5 -16.8 -1.7 -5.2 0.9 -9 0.7 -19.8 -1.8 -1.8 -0.3 -5.6 -1.7 -8.3 -2.9 -4.5 -2.2 -6.1 -2.2 -23.5 -1.5 -21.8 1 -23.7 1 -39.7 0.2 -8.7 -0.3 -12.7 -1 -13.9 -2.1 -1.7 -1.8 -1.8 -1.5 2 -15.5 0.6 -2.1 0.9 -11.2 0.8 -20.2 -0.2 -10.5 0.2 -18.8 1.2 -23.5 1.2 -5.9 1.2 -8.5 0.1 -14 -0.8 -3.7 -1.8 -9.2 -2.2 -12.3 -0.7 -5.2 -3.7 -14.2 -5.6 -16.8 -0.4 -0.6 -1.2 -3.9 -1.7 -7.3 -0.4 -3.4 -1.7 -7.3 -2.6 -8.9 -1.8 -2.7 -1.8 -2.7 1.5 -2 2.1 0.3 5.3 -0.2 8.7 -1.7 4.8 -2.1 6.5 -2.2 18.5 -1.5 7.2 0.6 23.2 1.1 35.5 1.2 12.3 0.1 24 0.3 25.8 0.4 1.9 0.1 8.5 0.1 14.8 -0.1 11.1 -0.3 11.7 -0.4 14.6 -3.6 1.8 -1.8 5.4 -4.3 8.1 -5.5 4.5 -1.9 5.6 -2 10.7 -0.8 7.2 1.8 8.5 2.8 8.5 6.6 0 3.8 1 4.8 3.1 3.1 1.2 -1.1 1.9 -0.9 3.1 0.8 1.9 2.6 1.6 3.9 -1.1 5.5 -1.6 0.9 -2.2 0.9 -2.6 -0.1 -1 -2.8 -2.6 -1.3 -2.6 2.4 0 2.1 -0.4 5 -0.9 6.5 -0.6 1.5 -0.7 8.6 -0.2 16 0.7 12.1 0.4 13.8 -1.5 17.2 -1.7 2.9 -1.9 4.3 -1 6.7 1.9 4.8 1.5 16 -0.7 18.7 -1.6 1.9 -1.8 4.4 -1.6 11.9 1 24.9 -0.1 39 -3.6 45.6 -2.4 4.4 -2.9 4.4 -7.2 0.8z"
       id="path2666" />
    <path
       d="M371 684.4 c-4.4 -2 -7.5 -2.6 -12.6 -2.5 -8.3 0.2 -19 -1.5 -21.3 -3.4 -1.1 -1 -6.2 -1.5 -15.5 -1.6 -12.1 -0.2 -13.8 -0.4 -14.1 -2.1 -0.2 -1.1 0.6 -3.4 1.8 -5 2 -2.9 2.1 -4.4 1.3 -20 -0.4 -9.2 -0.4 -17.9 0.1 -19.3 0.6 -1.5 0.4 -4.8 -0.2 -7.8 -0.7 -3 -1.6 -10 -2.1 -15.7 -0.6 -5.7 -1.2 -10.8 -1.6 -11.3 -0.3 -0.7 0.1 -1.7 1 -2.5 1.2 -1 3.3 -1.1 8.4 -0.2 3.7 0.7 9.2 0.9 12.2 0.6 6.8 -0.8 16.6 2.2 19.7 6.1 l2.4 2.8 15.1 -1.1 c24.4 -1.7 25 -1.3 26.7 15.6 1.5 13.7 0.4 61.1 -1.3 64.9 -1 2.1 -2.7 3 -7.8 4 -5.9 1.1 -6.8 1 -12.2 -1.5z m-6.2 -33.1 c7 -0.6 12.3 -3.5 12.9 -7.2 0.2 -1.1 1 -2.6 1.8 -3.3 0.8 -0.6 1.7 -3.7 2.1 -6.8 0.7 -6.3 -0.4 -8.3 -5.6 -9.9 -2.1 -0.7 -2.6 -1.6 -2.6 -5.7 0 -5.5 -1.2 -6.3 -9.2 -5.4 -6.7 0.8 -16.3 -2.2 -20.7 -6.6 -3 -3 -4.7 -3.6 -10.2 -4 l-6.4 -0.4 0.3 4.9 c0.3 3.8 -0.1 5.3 -1.9 7 -1.3 1.2 -2.4 2.8 -2.4 3.7 0 0.8 -0.8 1.8 -1.7 2.1 -1.3 0.6 -1.6 2.4 -1.2 9.1 0.3 4.6 0.8 8.7 1.1 9.1 0.3 0.3 0.7 3 0.7 6.1 0 3.4 0.4 5.3 1.1 4.8 0.7 -0.3 1.1 -2.1 1.1 -4 0 -3 0.2 -3.3 4.6 -3.3 2.5 0 5.6 0.6 7 1.3 1.3 0.7 5.7 1.9 9.8 2.6 5.8 0.9 7.3 1.6 7.6 3.4 0.4 2.6 3.7 5.5 4.6 4 0.3 -0.4 3.6 -1.1 7.2 -1.5z"
       id="path2668" />
    <path
       d="M536 613 c0 -2 -0.8 -4.4 -1.7 -5.2 -1 -0.8 -1.7 -3.3 -1.7 -5.7 0 -4 0.3 -4.5 3.4 -5 2.8 -0.6 3.4 -1.2 3.4 -3.8 0 -1.7 0.7 -3.7 1.6 -4.4 0.9 -0.8 2.1 -2.8 2.7 -4.6 1 -2.8 0.9 -3.3 -1.2 -3.8 -1.3 -0.3 -3.8 -0.7 -5.4 -0.7 -3.8 0 -6.6 -3.3 -6.6 -7.6 0 -2.8 0.4 -3.6 2.2 -3.6 1.7 0 2.2 -0.8 2.2 -3.3 0 -1.9 0.6 -3.7 1.1 -4 0.7 -0.3 1.1 -2.1 1.1 -4 0 -3 0.3 -3.3 3.9 -3.3 3.1 0 4.3 0.6 5 2.6 0.9 2.4 1 2.4 1 -0.6 0.1 -2.6 0.7 -3 3.8 -3.4 7.8 -0.8 3.3 -9.2 -6.2 -11.2 -11 -2.4 -15.4 -2.8 -25 -2.5 -5.5 0.2 -12.2 0.3 -14.7 0.4 -3.7 0 -4.8 0.4 -5.3 2.2 -0.7 2.8 -7.4 3.1 -11.2 0.6 -2 -1.2 -3.5 -1.3 -7.3 -0.3 -4.5 1.1 -4.7 1.3 -4.7 5.4 0 2.4 -1 7.4 -2.2 11.3 -1.6 4.7 -1.9 7.4 -1.1 8.2 1.5 1.5 1.5 7 0 9.8 -0.7 1.2 -2.4 2.1 -3.9 2.1 -2.5 0 -2.6 -0.3 -2 -4 0.4 -3 0.1 -4.7 -1.9 -7.4 -2.1 -2.9 -2.4 -4.1 -1.7 -8.6 0.4 -2.8 0.9 -7.4 1.1 -10.2 1.1 -15.6 3.1 -18.7 11.6 -19.1 9.3 -0.2 23.9 -0.1 41.2 0.4 9.3 0.3 17.9 0.7 19.4 0.7 1.5 0 4.8 1.2 7.4 2.8 2.7 1.6 6.4 2.8 8.3 2.8 2 0 4.7 1.1 6.5 2.6 l3 2.7 -1.2 9.4 c-1.7 12.1 -1.7 25.1 0 29.8 1.1 3 1.1 4.5 -0.1 7.4 -0.8 1.9 -1.7 4.8 -2 6.4 -0.3 1.6 -2 4.1 -3.8 5.7 -1.8 1.8 -3.4 4.7 -3.8 7.3 -1.3 7.6 -3.3 9.4 -9.5 9.4 l-5.6 0 0 -3.8z"
       id="path2672" />
    <path
       d="M493.4 364.7 c-8.2 -0.4 -10 -1.2 -11.9 -4.9 -1.3 -2.7 -1.7 -5.2 -1.1 -10.9 0.4 -4 0.8 -8.6 0.7 -10.2 0 -1.6 0 -5.3 0 -8.3 -0.1 -3.3 0.8 -7.3 2.2 -10.1 1.8 -3.9 2.1 -5.8 1.3 -10.3 -0.8 -5.5 -0.8 -41.9 0.1 -74.5 0.6 -18.7 1 -20.7 7.4 -29.2 2.1 -2.8 4.5 -6.6 5.3 -8.5 1.2 -2.8 2.8 -4 8.5 -6.1 3.9 -1.5 8.6 -3.6 10.7 -4.7 3.1 -1.9 4.9 -2 13.2 -1.3 l9.6 0.8 3.6 -3.5 c5.6 -5.4 9.3 -5.3 10.4 0.3 0.7 3.6 1 3.8 5.6 4.5 2.7 0.3 7.3 0.9 10.2 1.2 4.8 0.6 10.3 3.4 10.4 5.2 0 0.3 -5 0.8 -11.2 0.8 -7.7 0 -12.1 0.6 -14.5 1.8 -1.9 0.9 -4.4 1.7 -5.7 1.7 -1.2 0 -3.5 0.7 -4.8 1.6 -1.3 0.8 -7.2 1.9 -12.9 2.2 -14.5 1 -18.6 2.6 -19.1 6.8 -0.1 1.9 -0.8 5.5 -1.6 8.2 -1.1 4.4 -1.6 4.8 -5.5 5.4 -3.5 0.6 -4.4 1.2 -4.4 3.1 0 1.3 -1.3 4.8 -2.9 7.8 -3 5.6 -5.3 20.1 -4.9 31.2 0 2.9 -0.4 6.4 -1.1 7.7 -2 3.6 -1.5 33 0.6 37 2.1 3.9 2.1 8.7 0.2 11.7 -1.6 2.4 -2 30.1 -0.4 31.5 0.4 0.4 3.6 0.7 7 0.6 3.6 -0.1 7.4 0.4 9.2 1.3 2.4 1.3 9.2 1.8 28.6 2 22.8 0.3 25.6 0.2 27.5 -1.6 1.2 -1 2.8 -1.9 3.5 -1.9 1.5 0 1.7 -4.3 1.3 -20 -0.2 -8.9 1.6 -18.2 4.8 -24.8 1.8 -3.7 6.4 -4.8 16.5 -3.9 4.6 0.4 16.7 0.9 26.9 1 24 0.3 34.1 1.5 32.4 3.5 -0.7 0.9 -0.8 1.6 -0.2 1.6 0.6 0 1.1 0.8 1.1 1.7 0 0.9 -0.8 1.7 -1.8 1.7 -1 0 -13.1 -0.4 -27 -1 -13.9 -0.6 -28.7 -0.7 -32.9 -0.3 l-7.6 0.8 -2.1 6.2 c-1.8 4.9 -2.1 9.4 -2.2 23.3 0 15.5 -0.2 17 -2 17 -1 0 -2.6 1.1 -3.5 2.4 -1.5 2.4 -1.9 2.5 -19.5 1.8 -10 -0.3 -26 -0.3 -35.5 0.1 -9.5 0.4 -19.6 0.7 -22.4 0.4z"
       id="path2674" />
  </g>
  <g
     fill="#c3ad9d"
     id="g2688">
    <path
       d="M352.7 656.6 c-1.8 -1.6 -3.4 -3.6 -3.4 -4.7 0 -1.5 -1.2 -2.1 -4.1 -2.7 -2.4 -0.3 -4.3 -0.2 -4.3 0.3 0 1.6 -2 1 -6.3 -1.9 -5.4 -3.7 -7.2 -3.6 -7.2 0.3 0 4.1 -4.5 8.5 -7.7 7.5 -2.7 -0.8 -4.1 -4.8 -2.5 -6.5 2 -2 1.5 -7 -1 -9.2 -2.6 -2.4 -2.8 -4.3 -0.8 -5.9 1 -0.9 1.2 -3.1 0.8 -8.2 -0.6 -5.9 -0.3 -7.3 1.3 -8.7 1.1 -0.9 2 -2.2 2 -2.8 0 -0.6 1.1 -2.2 2.6 -3.8 2.5 -2.6 2.5 -2.7 0.2 -4.3 -1.2 -0.9 -3.9 -1.6 -6.2 -1.3 -3.7 0.3 -3.9 0.1 -4.6 -3.8 -0.3 -2.4 -0.4 -4.5 -0.2 -4.7 0.3 -0.3 2.6 0.2 5.2 1.1 2.8 1 8.2 1.6 13.6 1.5 10.1 -0.2 13.5 0.8 17.4 5 3.3 3.5 14.1 7 16.4 5.2 1 -0.8 2.9 -0.9 6.3 -0.1 3.8 0.9 5.5 0.8 7.4 -0.4 3.4 -2.2 4.8 -2.1 4.8 0.4 0 1.1 0.8 2.7 1.7 3.5 2.6 2.1 -0.1 4.8 -4.1 4.3 -4.4 -0.7 -4.3 2.9 0.1 4.5 5.2 1.8 7.3 5.8 5.8 11.1 -0.7 2.4 -1.2 5.8 -1.2 7.7 0 2 -0.7 3.8 -1.6 4.1 -0.9 0.3 -1.8 1.8 -2 3.1 -0.6 4 -5.7 7 -13.2 7.5 -5.7 0.4 -6.7 0.8 -6.7 2.6 0 3 -4.3 2.7 -8.4 -0.7z"
       id="path2680" />
    <path
       d="M488.9 618.1 c-8.6 -0.4 -20.5 -2.5 -22 -3.7 -1 -0.8 -1.1 -2 -0.3 -4.4 0.8 -2.1 0.8 -4.6 -0.1 -7.7 -1.8 -7 -0.4 -24.4 2.4 -27.9 1.9 -2.5 1.9 -2.9 0.4 -5 -1.9 -2.8 -2.1 -5.6 -0.6 -8.4 2.1 -3.8 4.5 -12.7 4.5 -16.9 0 -4.4 0 -4.4 5.9 -5.8 6.6 -1.7 9.3 -1.5 12.8 0.8 3.3 2.1 3.6 2 4.7 -0.9 1 -2.7 2.2 -2.8 31.8 -3.3 7.2 -0.1 11.7 0.4 14.5 1.9 1.7 0.9 4.3 1.6 5.8 1.6 4 0 9.4 5 10.3 9.6 1 5.3 -2 9.9 -5.8 9.1 -2.2 -0.4 -2.7 -0.1 -2 1.3 1.7 4.1 1.8 5.7 0.3 5.7 -0.9 0 -2.7 0.3 -4.1 0.7 -2 0.6 -2.8 0 -4.1 -3.4 -1.9 -4.6 -3.1 -5.4 -2.2 -1.5 0.4 1.7 0.1 3.1 -1 4 -1 0.9 -1.8 2.9 -1.8 4.7 0 2.6 -0.4 3.3 -2.5 3.3 -2.5 0 -2.5 0 -0.3 2.2 1.5 1.3 4 2.2 7.3 2.4 6.1 0.3 7.8 0.9 7.8 2.5 0 1.7 -4.5 11.1 -6.5 13.3 -0.9 1.1 -1.3 3.1 -1.1 4.8 0.4 2.2 0.1 2.8 -1.8 2.8 -4.7 0 -5.6 1.7 -3 5.2 1.8 2.5 2.1 4.3 1.7 7.4 l-0.7 4 -9.2 0.7 c-11.1 0.8 -34.2 1.3 -41 0.9z"
       id="path2682" />
    <path
       d="M239.5 399.2 c-8.7 -1.1 -11 -3.5 -12.1 -12.6 -3.5 -29.9 -3.5 -30.2 1.9 -36.6 l3.7 -4.3 17 0.2 c17.7 0.3 24.2 1.6 25.1 4.7 2.9 10.7 3.1 14.1 1.7 20.3 -1.5 5.8 -2 19 -0.9 22.3 0.2 0.9 -0.3 2 -1.2 2.5 -5.8 3.1 -23.7 4.8 -35.2 3.4z"
       id="path2684" />
    <path
       d="M509.6 359.9 c-1.8 -0.3 -4.4 -1.2 -5.8 -2 -1.5 -0.8 -4 -1 -6.4 -0.6 -6.5 1.1 -9.3 -0.1 -10.5 -4.9 -0.7 -2.6 -0.8 -5.8 -0.1 -8.5 0.6 -2.5 0.7 -8.6 0.3 -13.7 -0.6 -7.3 -0.3 -9.6 1.1 -11.7 1.7 -2.4 1.7 -2.9 0 -6.1 -1.5 -2.7 -1.8 -7.4 -2 -20.9 -0.1 -9.5 0.3 -18.6 0.9 -20.2 0.6 -1.6 1.2 -6.1 1.5 -10.1 1.1 -17.2 1.3 -19.8 2.1 -23 0.4 -1.8 2 -5.6 3.5 -8.3 1.3 -2.7 2.2 -5.5 1.9 -6.4 -0.7 -1.8 1.7 -5.2 3.1 -4.4 0.4 0.3 2.1 0.3 3.7 -0.1 3.1 -0.8 4.7 -5.2 4.1 -11.3 -0.2 -2.7 0.3 -3.9 2.4 -5.3 2.9 -1.9 15.1 -3.9 23.4 -4 2.8 0 6.1 -0.8 7.3 -1.7 1.1 -0.9 3.3 -1.7 4.7 -1.7 1.5 0 4 -0.8 5.8 -1.7 3 -1.6 7.6 -1.8 30.1 -1.7 2.6 0 7.1 -0.1 10.1 -0.1 8.2 -0.2 21 1.9 23.9 3.9 1.5 1 4.3 1.8 6.2 1.8 1.9 0 4.8 1 6.5 2.4 2.5 1.9 3.9 2.2 7.8 1.7 7.2 -1.1 8.5 -0.2 8.5 5.7 0 2.7 -0.8 6.4 -1.7 8.2 -2 3.8 -2 6.1 -0.9 24.7 0.6 8.1 0.4 16.3 -0.1 19.2 -0.8 4 -0.6 6.4 1 11.2 1.1 3.4 2.1 9.3 2.2 13.3 0.2 5.4 1 8.9 3.3 13.1 5.6 11.2 3.6 14.5 -8.1 13.3 -6.7 -0.7 -48.4 -2.1 -56.9 -1.9 -3.6 0 -7.3 3.5 -7.3 6.7 0 1 -0.8 3.9 -1.7 6.5 -1.2 3.6 -1.6 8.4 -1.1 19.4 0.3 13.1 0.2 14.8 -1.5 15.4 -1 0.3 -2.8 1.5 -4 2.5 -1.7 1.6 -5.8 1.8 -28.1 1.8 -14.4 0 -27.5 -0.3 -29.3 -0.7z"
       id="path2686" />
  </g>
</svg>
