<?xml version="1.0" encoding="UTF-8" standalone="no"?>
<!-- Created with Inkscape (http://www.inkscape.org/) -->

<svg
   width="1020"
   height="1020"
   id="svg2985"
   version="1.1"
   inkscape:version="1.4.2 (ebf0e940, 2025-05-08)"
   sodipodi:docname="mdterm.svg"
   enable-background="new"
   inkscape:export-xdpi="48.189999"
   inkscape:export-ydpi="48.189999"
   xmlns:inkscape="http://www.inkscape.org/namespaces/inkscape"
   xmlns:sodipodi="http://sodipodi.sourceforge.net/DTD/sodipodi-0.dtd"
   xmlns="http://www.w3.org/2000/svg"
   xmlns:svg="http://www.w3.org/2000/svg"
   xmlns:rdf="http://www.w3.org/1999/02/22-rdf-syntax-ns#"
   xmlns:cc="http://creativecommons.org/ns#"
   xmlns:dc="http://purl.org/dc/elements/1.1/">
  <defs
     id="defs2987" />
  <sodipodi:namedview
     id="base"
     pagecolor="#ffffff"
     bordercolor="#ffffff"
     borderopacity="0.0"
     inkscape:pageopacity="0.0"
     inkscape:pageshadow="0"
     inkscape:zoom="0.7"
     inkscape:cx="464.28571"
     inkscape:cy="632.85714"
     inkscape:document-units="px"
     inkscape:current-layer="svg2985"
     showgrid="false"
     inkscape:window-width="1696"
     inkscape:window-height="1027"
     inkscape:window-x="0"
     inkscape:window-y="25"
     inkscape:window-maximized="0"
     fit-margin-top="5"
     fit-margin-left="5"
     fit-margin-right="5"
     fit-margin-bottom="5"
     showguides="false"
     inkscape:showpageshadow="2"
     inkscape:pagecheckerboard="0"
     inkscape:deskcolor="#d1d1d1" />
  <metadata
     id="metadata2990">
    <rdf:RDF>
      <cc:Work
         rdf:about="">
        <dc:format>image/svg+xml</dc:format>
        <dc:type
           rdf:resource="http://purl.org/dc/dcmitype/StillImage" />
      </cc:Work>
    </rdf:RDF>
  </metadata>
  <path
     id="path1"
     style="fill:#000000;fill-opacity:1;stroke:none;stroke-width:1.01697;stroke-linecap:round;stroke-linejoin:round;paint-order:markers stroke fill"
     d="M 511.94499 46.220955 A 509.75 509.50003 0 0 0 2.1949997 555.72022 A 509.75 509.50003 0 0 0 511.94499 1065.2195 A 509.75 509.50003 0 0 0 1021.695 555.72022 A 509.75 509.50003 0 0 0 511.94499 46.220955 z M 195.9 291.28092 L 282.05173 291.28092 L 282.05173 377.00684 L 195.9 377.00684 L 195.9 324.10749 C 193.1589 324.5417 189.90897 326.65565 186.45768 331.47801 C 182.5406 336.95119 178.8381 345.53866 176.24675 356.40108 C 171.06402 378.12593 171.06402 405.56797 176.24675 427.29282 C 178.8381 438.15524 182.5406 446.74074 186.45768 452.21391 C 189.90897 457.03627 193.1589 459.14824 195.9 459.58245 L 195.9 398.43683 L 282.05173 398.43683 L 282.05173 484.16076 L 195.9 484.16076 L 195.9 471.04044 C 188.45688 470.60617 182.05559 465.71706 177.12487 458.82756 C 171.95699 451.6067 167.93157 441.81225 165.09596 429.926 C 159.42474 406.1535 159.42474 377.5404 165.09596 353.7679 C 167.93157 341.88165 171.95699 332.08523 177.12487 324.86435 C 182.05559 317.97487 188.45688 313.08376 195.9 312.6495 L 195.9 291.28092 z M 303.59066 291.28092 L 389.7404 291.28092 L 389.7404 377.00684 L 303.59066 377.00684 L 303.59066 291.28092 z M 411.27933 291.28092 L 497.42907 291.28092 L 497.42907 377.00684 L 411.27933 377.00684 L 411.27933 291.28092 z M 520.11692 291.28092 L 606.26666 291.28092 L 606.26666 377.00684 L 520.11692 377.00684 L 520.11692 291.28092 z M 627.80559 291.28092 L 713.95732 291.28092 L 713.95732 377.00684 L 627.80559 377.00684 L 627.80559 291.28092 z M 735.49625 291.28092 L 821.64599 291.28092 L 821.64599 310.71374 C 829.31401 310.98838 835.87348 316.00859 840.89503 323.11088 C 846.06072 330.41704 850.08146 340.32616 852.91597 352.35323 C 858.58498 376.40736 858.58498 405.36663 852.91597 429.42076 C 850.08146 441.44783 846.06072 451.35496 840.89503 458.66113 C 835.87348 465.76343 829.31401 470.7855 821.64599 471.06025 L 821.64599 484.16076 L 735.49625 484.16076 L 735.49625 398.43683 L 821.64599 398.43683 L 821.64599 459.56065 C 824.43426 459.27753 827.83354 457.19225 831.46266 452.05936 C 835.38473 446.51215 839.09339 437.80664 841.68753 426.79947 C 846.8758 404.78514 846.8758 376.98687 841.68753 354.97254 C 839.09339 343.96538 835.38473 335.26186 831.46266 329.71463 C 827.83354 324.58175 824.43426 322.49276 821.64599 322.20938 L 821.64599 377.00684 L 735.49625 377.00684 L 735.49625 291.28092 z M 208.00258 303.32539 L 208.00258 364.96237 L 269.94915 364.96237 L 269.94915 303.32539 L 208.00258 303.32539 z M 747.59883 303.32539 L 747.59883 364.96237 L 809.54341 364.96237 L 809.54341 303.32539 L 747.59883 303.32539 z M 303.59066 398.43683 L 389.7404 398.43683 L 389.7404 484.16076 L 303.59066 484.16076 L 303.59066 398.43683 z M 411.27933 398.43683 L 497.42907 398.43683 L 497.42907 484.16076 L 411.27933 484.16076 L 411.27933 398.43683 z M 520.11692 398.43683 L 606.26666 398.43683 L 606.26666 484.16076 L 520.11692 484.16076 L 520.11692 398.43683 z M 627.80559 398.43683 L 713.95732 398.43683 L 713.95732 484.16076 L 627.80559 484.16076 L 627.80559 398.43683 z M 208.00258 410.48129 L 208.00258 472.1163 L 269.94915 472.1163 L 269.94915 410.48129 L 208.00258 410.48129 z M 747.59883 410.48129 L 747.59883 472.1163 L 809.54341 472.1163 L 809.54341 410.48129 L 747.59883 410.48129 z M 411.27933 505.59076 L 497.42907 505.59076 L 497.42907 591.31469 L 411.27933 591.31469 L 411.27933 505.59076 z M 520.11692 505.59076 L 606.26666 505.59076 L 606.26666 591.31469 L 520.11692 591.31469 L 520.11692 505.59076 z M 411.27933 612.74666 L 497.42907 612.74666 L 497.42907 698.4706 L 411.27933 698.4706 L 411.27933 612.74666 z M 520.11692 612.74666 L 606.26666 612.74666 L 606.26666 698.4706 L 520.11692 698.4706 L 520.11692 612.74666 z M 411.27933 719.90059 L 497.42907 719.90059 L 497.42907 805.62452 L 411.27933 805.62452 L 411.27933 719.90059 z M 520.11692 719.90059 L 606.26666 719.90059 L 606.26666 805.62452 L 520.11692 805.62452 L 520.11692 719.90059 z M 423.38191 731.94505 L 423.38191 793.58006 L 485.32649 793.58006 L 485.32649 731.94505 L 423.38191 731.94505 z M 532.2195 731.94505 L 532.2195 793.58006 L 594.16408 793.58006 L 594.16408 731.94505 L 532.2195 731.94505 z M 411.27933 827.05451 L 497.42907 827.05451 L 497.42907 912.78043 L 411.27933 912.78043 L 411.27933 827.05451 z M 520.11692 827.05451 L 606.26666 827.05451 L 606.26666 912.78043 L 520.11692 912.78043 L 520.11692 827.05451 z "
     transform="matrix(0.98087299,0,0,0.98576796,7.846984,-39.787746)" />
</svg>
